<svg width="114" height="63" viewBox="0 0 114 63" fill="none" xmlns="http://www.w3.org/2000/svg">
<path d="M91.3599 10.95L97.0999 15.26L98.3399 8.2L100.83 14.93L105.7 9.65L104.16 16.66L111.1 14.85L106.02 19.91L112.83 22.15L105.82 23.66L110.35 29.23" stroke="#FFE003" stroke-width="1.86" stroke-linecap="round" stroke-linejoin="round"/>
<path d="M91.3599 10.95L97.0999 15.26L98.3399 8.2L100.83 14.93L105.7 9.65L104.16 16.66L111.1 14.85L106.02 19.91L112.83 22.15L105.82 23.66L110.35 29.23" stroke="#FFE313" stroke-width="1.68" stroke-linecap="round" stroke-linejoin="round"/>
<path d="M91.3599 10.95L97.0999 15.26L98.3399 8.2L100.83 14.93L105.7 9.65L104.16 16.66L111.1 14.85L106.02 19.91L112.83 22.15L105.82 23.66L110.35 29.23" stroke="#FFE835" stroke-width="1.49" stroke-linecap="round" stroke-linejoin="round"/>
<path d="M91.3599 10.95L97.0999 15.26L98.3399 8.2L100.83 14.93L105.7 9.65L104.16 16.66L111.1 14.85L106.02 19.91L112.83 22.15L105.82 23.66L110.35 29.23" stroke="#FFEB51" stroke-width="1.3" stroke-linecap="round" stroke-linejoin="round"/>
<path d="M91.3599 10.95L97.0999 15.26L98.3399 8.2L100.83 14.93L105.7 9.65L104.16 16.66L111.1 14.85L106.02 19.91L112.83 22.15L105.82 23.66L110.35 29.23" stroke="#FFEE6E" stroke-width="1.12" stroke-linecap="round" stroke-linejoin="round"/>
<path d="M91.3599 10.95L97.0999 15.26L98.3399 8.2L100.83 14.93L105.7 9.65L104.16 16.66L111.1 14.85L106.02 19.91L112.83 22.15L105.82 23.66L110.35 29.23" stroke="#FFF18D" stroke-width="0.93" stroke-linecap="round" stroke-linejoin="round"/>
<path d="M91.3599 10.95L97.0999 15.26L98.3399 8.2L100.83 14.93L105.7 9.65L104.16 16.66L111.1 14.85L106.02 19.91L112.83 22.15L105.82 23.66L110.35 29.23" stroke="#FFF5AC" stroke-width="0.75" stroke-linecap="round" stroke-linejoin="round"/>
<path d="M91.3599 10.95L97.0999 15.26L98.3399 8.2L100.83 14.93L105.7 9.65L104.16 16.66L111.1 14.85L106.02 19.91L112.83 22.15L105.82 23.66L110.35 29.23" stroke="#FDF7C7" stroke-width="0.37" stroke-linecap="round" stroke-linejoin="round"/>
<path d="M83.0001 19.79C82.5801 19.79 82.1601 19.79 81.7401 19.79C81.6203 19.7792 81.4998 19.7792 81.3801 19.79H24.2001C24.0751 19.7912 23.9508 19.808 23.8301 19.84C23.4001 19.84 22.9701 19.79 22.5401 19.79C19.0729 19.7891 15.6603 20.6537 12.6117 22.3054C9.56322 23.9571 6.97521 26.3436 5.0824 29.2486C3.18959 32.1535 2.05186 35.485 1.77238 38.9409C1.49289 42.3969 2.0805 45.8679 3.48191 49.0393C4.88332 52.2106 7.0542 54.982 9.79769 57.1021C12.5412 59.2222 15.7705 60.6239 19.1928 61.1802C22.6151 61.7364 26.1221 61.4296 29.3958 60.2876C32.6695 59.1455 35.6064 57.2043 37.9401 54.64H67.6301C69.9646 57.2052 72.9027 59.1469 76.1778 60.2888C79.453 61.4307 82.9614 61.7366 86.3847 61.179C89.8081 60.6213 93.038 59.2176 95.7813 57.0952C98.5247 54.9729 100.695 52.199 102.094 49.0255C103.494 45.852 104.079 42.3792 103.796 38.9222C103.514 35.4653 102.372 32.1337 100.475 29.2297C98.5788 26.3257 95.987 23.9413 92.9353 22.2929C89.8836 20.6444 86.4685 19.7841 83.0001 19.79V19.79Z" stroke="#FFE003" stroke-width="1.86" stroke-linecap="round" stroke-linejoin="round"/>
<path d="M83.0001 19.79C82.5801 19.79 82.1601 19.79 81.7401 19.79C81.6203 19.7792 81.4998 19.7792 81.3801 19.79H24.2001C24.0751 19.7912 23.9508 19.808 23.8301 19.84C23.4001 19.84 22.9701 19.79 22.5401 19.79C19.0729 19.7891 15.6603 20.6537 12.6117 22.3054C9.56322 23.9571 6.97521 26.3436 5.0824 29.2486C3.18959 32.1535 2.05186 35.485 1.77238 38.9409C1.49289 42.3969 2.0805 45.8679 3.48191 49.0393C4.88332 52.2106 7.0542 54.982 9.79769 57.1021C12.5412 59.2222 15.7705 60.6239 19.1928 61.1802C22.6151 61.7364 26.1221 61.4296 29.3958 60.2876C32.6695 59.1455 35.6064 57.2043 37.9401 54.64H67.6301C69.9646 57.2052 72.9027 59.1469 76.1778 60.2888C79.453 61.4307 82.9614 61.7366 86.3847 61.179C89.8081 60.6213 93.038 59.2176 95.7813 57.0952C98.5247 54.9729 100.695 52.199 102.094 49.0255C103.494 45.852 104.079 42.3792 103.796 38.9222C103.514 35.4653 102.372 32.1337 100.475 29.2297C98.5788 26.3257 95.987 23.9413 92.9353 22.2929C89.8836 20.6444 86.4685 19.7841 83.0001 19.79V19.79Z" stroke="#FFE313" stroke-width="1.68" stroke-linecap="round" stroke-linejoin="round"/>
<path d="M83.0001 19.79C82.5801 19.79 82.1601 19.79 81.7401 19.79C81.6203 19.7792 81.4998 19.7792 81.3801 19.79H24.2001C24.0751 19.7912 23.9508 19.808 23.8301 19.84C23.4001 19.84 22.9701 19.79 22.5401 19.79C19.0729 19.7891 15.6603 20.6537 12.6117 22.3054C9.56322 23.9571 6.97521 26.3436 5.0824 29.2486C3.18959 32.1535 2.05186 35.485 1.77238 38.9409C1.49289 42.3969 2.0805 45.8679 3.48191 49.0393C4.88332 52.2106 7.0542 54.982 9.79769 57.1021C12.5412 59.2222 15.7705 60.6239 19.1928 61.1802C22.6151 61.7364 26.1221 61.4296 29.3958 60.2876C32.6695 59.1455 35.6064 57.2043 37.9401 54.64H67.6301C69.9646 57.2052 72.9027 59.1469 76.1778 60.2888C79.453 61.4307 82.9614 61.7366 86.3847 61.179C89.8081 60.6213 93.038 59.2176 95.7813 57.0952C98.5247 54.9729 100.695 52.199 102.094 49.0255C103.494 45.852 104.079 42.3792 103.796 38.9222C103.514 35.4653 102.372 32.1337 100.475 29.2297C98.5788 26.3257 95.987 23.9413 92.9353 22.2929C89.8836 20.6444 86.4685 19.7841 83.0001 19.79V19.79Z" stroke="#FFE835" stroke-width="1.49" stroke-linecap="round" stroke-linejoin="round"/>
<path d="M83.0001 19.79C82.5801 19.79 82.1601 19.79 81.7401 19.79C81.6203 19.7792 81.4998 19.7792 81.3801 19.79H24.2001C24.0751 19.7912 23.9508 19.808 23.8301 19.84C23.4001 19.84 22.9701 19.79 22.5401 19.79C19.0729 19.7891 15.6603 20.6537 12.6117 22.3054C9.56322 23.9571 6.97521 26.3436 5.0824 29.2486C3.18959 32.1535 2.05186 35.485 1.77238 38.9409C1.49289 42.3969 2.0805 45.8679 3.48191 49.0393C4.88332 52.2106 7.0542 54.982 9.79769 57.1021C12.5412 59.2222 15.7705 60.6239 19.1928 61.1802C22.6151 61.7364 26.1221 61.4296 29.3958 60.2876C32.6695 59.1455 35.6064 57.2043 37.9401 54.64H67.6301C69.9646 57.2052 72.9027 59.1469 76.1778 60.2888C79.453 61.4307 82.9614 61.7366 86.3847 61.179C89.8081 60.6213 93.038 59.2176 95.7813 57.0952C98.5247 54.9729 100.695 52.199 102.094 49.0255C103.494 45.852 104.079 42.3792 103.796 38.9222C103.514 35.4653 102.372 32.1337 100.475 29.2297C98.5788 26.3257 95.987 23.9413 92.9353 22.2929C89.8836 20.6444 86.4685 19.7841 83.0001 19.79V19.79Z" stroke="#FFEB51" stroke-width="1.3" stroke-linecap="round" stroke-linejoin="round"/>
<path d="M83.0001 19.79C82.5801 19.79 82.1601 19.79 81.7401 19.79C81.6203 19.7792 81.4998 19.7792 81.3801 19.79H24.2001C24.0751 19.7912 23.9508 19.808 23.8301 19.84C23.4001 19.84 22.9701 19.79 22.5401 19.79C19.0729 19.7891 15.6603 20.6537 12.6117 22.3054C9.56322 23.9571 6.97521 26.3436 5.0824 29.2486C3.18959 32.1535 2.05186 35.485 1.77238 38.9409C1.49289 42.3969 2.0805 45.8679 3.48191 49.0393C4.88332 52.2106 7.0542 54.982 9.79769 57.1021C12.5412 59.2222 15.7705 60.6239 19.1928 61.1802C22.6151 61.7364 26.1221 61.4296 29.3958 60.2876C32.6695 59.1455 35.6064 57.2043 37.9401 54.64H67.6301C69.9646 57.2052 72.9027 59.1469 76.1778 60.2888C79.453 61.4307 82.9614 61.7366 86.3847 61.179C89.8081 60.6213 93.038 59.2176 95.7813 57.0952C98.5247 54.9729 100.695 52.199 102.094 49.0255C103.494 45.852 104.079 42.3792 103.796 38.9222C103.514 35.4653 102.372 32.1337 100.475 29.2297C98.5788 26.3257 95.987 23.9413 92.9353 22.2929C89.8836 20.6444 86.4685 19.7841 83.0001 19.79V19.79Z" stroke="#FFEE6E" stroke-width="1.12" stroke-linecap="round" stroke-linejoin="round"/>
<path d="M83.0001 19.79C82.5801 19.79 82.1601 19.79 81.7401 19.79C81.6203 19.7792 81.4998 19.7792 81.3801 19.79H24.2001C24.0751 19.7912 23.9508 19.808 23.8301 19.84C23.4001 19.84 22.9701 19.79 22.5401 19.79C19.0729 19.7891 15.6603 20.6537 12.6117 22.3054C9.56322 23.9571 6.97521 26.3436 5.0824 29.2486C3.18959 32.1535 2.05186 35.485 1.77238 38.9409C1.49289 42.3969 2.0805 45.8679 3.48191 49.0393C4.88332 52.2106 7.0542 54.982 9.79769 57.1021C12.5412 59.2222 15.7705 60.6239 19.1928 61.1802C22.6151 61.7364 26.1221 61.4296 29.3958 60.2876C32.6695 59.1455 35.6064 57.2043 37.9401 54.64H67.6301C69.9646 57.2052 72.9027 59.1469 76.1778 60.2888C79.453 61.4307 82.9614 61.7366 86.3847 61.179C89.8081 60.6213 93.038 59.2176 95.7813 57.0952C98.5247 54.9729 100.695 52.199 102.094 49.0255C103.494 45.852 104.079 42.3792 103.796 38.9222C103.514 35.4653 102.372 32.1337 100.475 29.2297C98.5788 26.3257 95.987 23.9413 92.9353 22.2929C89.8836 20.6444 86.4685 19.7841 83.0001 19.79V19.79Z" stroke="#FFF18D" stroke-width="0.93" stroke-linecap="round" stroke-linejoin="round"/>
<path d="M83.0001 19.79C82.5801 19.79 82.1601 19.79 81.7401 19.79C81.6203 19.7792 81.4998 19.7792 81.3801 19.79H24.2001C24.0751 19.7912 23.9508 19.808 23.8301 19.84C23.4001 19.84 22.9701 19.79 22.5401 19.79C19.0729 19.7891 15.6603 20.6537 12.6117 22.3054C9.56322 23.9571 6.97521 26.3436 5.0824 29.2486C3.18959 32.1535 2.05186 35.485 1.77238 38.9409C1.49289 42.3969 2.0805 45.8679 3.48191 49.0393C4.88332 52.2106 7.0542 54.982 9.79769 57.1021C12.5412 59.2222 15.7705 60.6239 19.1928 61.1802C22.6151 61.7364 26.1221 61.4296 29.3958 60.2876C32.6695 59.1455 35.6064 57.2043 37.9401 54.64H67.6301C69.9646 57.2052 72.9027 59.1469 76.1778 60.2888C79.453 61.4307 82.9614 61.7366 86.3847 61.179C89.8081 60.6213 93.038 59.2176 95.7813 57.0952C98.5247 54.9729 100.695 52.199 102.094 49.0255C103.494 45.852 104.079 42.3792 103.796 38.9222C103.514 35.4653 102.372 32.1337 100.475 29.2297C98.5788 26.3257 95.987 23.9413 92.9353 22.2929C89.8836 20.6444 86.4685 19.7841 83.0001 19.79V19.79Z" stroke="#FFF5AC" stroke-width="0.75" stroke-linecap="round" stroke-linejoin="round"/>
<path d="M83.0001 19.79C82.5801 19.79 82.1601 19.79 81.7401 19.79C81.6203 19.7792 81.4998 19.7792 81.3801 19.79H24.2001C24.0751 19.7912 23.9508 19.808 23.8301 19.84C23.4001 19.84 22.9701 19.79 22.5401 19.79C19.0729 19.7891 15.6603 20.6537 12.6117 22.3054C9.56322 23.9571 6.97521 26.3436 5.0824 29.2486C3.18959 32.1535 2.05186 35.485 1.77238 38.9409C1.49289 42.3969 2.0805 45.8679 3.48191 49.0393C4.88332 52.2106 7.0542 54.982 9.79769 57.1021C12.5412 59.2222 15.7705 60.6239 19.1928 61.1802C22.6151 61.7364 26.1221 61.4296 29.3958 60.2876C32.6695 59.1455 35.6064 57.2043 37.9401 54.64H67.6301C69.9646 57.2052 72.9027 59.1469 76.1778 60.2888C79.453 61.4307 82.9614 61.7366 86.3847 61.179C89.8081 60.6213 93.038 59.2176 95.7813 57.0952C98.5247 54.9729 100.695 52.199 102.094 49.0255C103.494 45.852 104.079 42.3792 103.796 38.9222C103.514 35.4653 102.372 32.1337 100.475 29.2297C98.5788 26.3257 95.987 23.9413 92.9353 22.2929C89.8836 20.6444 86.4685 19.7841 83.0001 19.79V19.79Z" stroke="#FDF7C7" stroke-width="0.37" stroke-linecap="round" stroke-linejoin="round"/>
<path d="M29.6501 36.91H25.2901V32.55C25.2901 31.9948 25.0702 31.4621 24.6786 31.0686C24.2869 30.6751 23.7553 30.4526 23.2001 30.45H20.4001C19.8449 30.4526 19.3133 30.6751 18.9216 31.0686C18.53 31.4621 18.3101 31.9948 18.3101 32.55V36.91H14.0001C13.721 36.9034 13.4433 36.9524 13.1834 37.0544C12.9235 37.1563 12.6865 37.309 12.4863 37.5036C12.2861 37.6982 12.1267 37.9308 12.0175 38.1877C11.9083 38.4447 11.8513 38.7208 11.8501 39V41.8C11.8513 42.0792 11.9083 42.3553 12.0175 42.6123C12.1267 42.8692 12.2861 43.1018 12.4863 43.2964C12.6865 43.491 12.9235 43.6437 13.1834 43.7457C13.4433 43.8476 13.721 43.8967 14.0001 43.89H18.3601V48.25C18.3601 48.8052 18.58 49.3379 18.9716 49.7314C19.3633 50.1249 19.8949 50.3474 20.4501 50.35H23.2501C23.8053 50.3474 24.3369 50.1249 24.7286 49.7314C25.1202 49.3379 25.3401 48.8052 25.3401 48.25V43.89H29.7001C30.2553 43.89 30.788 43.6701 31.1815 43.2785C31.575 42.8868 31.7975 42.3552 31.8001 41.8V39C31.7988 38.7208 31.7419 38.4447 31.6327 38.1877C31.5235 37.9308 31.3641 37.6982 31.1639 37.5036C30.9637 37.309 30.7267 37.1563 30.4668 37.0544C30.2069 36.9524 29.9292 36.9034 29.6501 36.91V36.91Z" stroke="#E82C88" stroke-width="1.86" stroke-linecap="round" stroke-linejoin="round"/>
<path d="M29.6501 36.91H25.2901V32.55C25.2901 31.9948 25.0702 31.4621 24.6786 31.0686C24.2869 30.6751 23.7553 30.4526 23.2001 30.45H20.4001C19.8449 30.4526 19.3133 30.6751 18.9216 31.0686C18.53 31.4621 18.3101 31.9948 18.3101 32.55V36.91H14.0001C13.721 36.9034 13.4433 36.9524 13.1834 37.0544C12.9235 37.1563 12.6865 37.309 12.4863 37.5036C12.2861 37.6982 12.1267 37.9308 12.0175 38.1877C11.9083 38.4447 11.8513 38.7208 11.8501 39V41.8C11.8513 42.0792 11.9083 42.3553 12.0175 42.6123C12.1267 42.8692 12.2861 43.1018 12.4863 43.2964C12.6865 43.491 12.9235 43.6437 13.1834 43.7457C13.4433 43.8476 13.721 43.8967 14.0001 43.89H18.3601V48.25C18.3601 48.8052 18.58 49.3379 18.9716 49.7314C19.3633 50.1249 19.8949 50.3474 20.4501 50.35H23.2501C23.8053 50.3474 24.3369 50.1249 24.7286 49.7314C25.1202 49.3379 25.3401 48.8052 25.3401 48.25V43.89H29.7001C30.2553 43.89 30.788 43.6701 31.1815 43.2785C31.575 42.8868 31.7975 42.3552 31.8001 41.8V39C31.7988 38.7208 31.7419 38.4447 31.6327 38.1877C31.5235 37.9308 31.3641 37.6982 31.1639 37.5036C30.9637 37.309 30.7267 37.1563 30.4668 37.0544C30.2069 36.9524 29.9292 36.9034 29.6501 36.91V36.91Z" stroke="#E44592" stroke-width="1.68" stroke-linecap="round" stroke-linejoin="round"/>
<path d="M29.6501 36.91H25.2901V32.55C25.2901 31.9948 25.0702 31.4621 24.6786 31.0686C24.2869 30.6751 23.7553 30.4526 23.2001 30.45H20.4001C19.8449 30.4526 19.3133 30.6751 18.9216 31.0686C18.53 31.4621 18.3101 31.9948 18.3101 32.55V36.91H14.0001C13.721 36.9034 13.4433 36.9524 13.1834 37.0544C12.9235 37.1563 12.6865 37.309 12.4863 37.5036C12.2861 37.6982 12.1267 37.9308 12.0175 38.1877C11.9083 38.4447 11.8513 38.7208 11.8501 39V41.8C11.8513 42.0792 11.9083 42.3553 12.0175 42.6123C12.1267 42.8692 12.2861 43.1018 12.4863 43.2964C12.6865 43.491 12.9235 43.6437 13.1834 43.7457C13.4433 43.8476 13.721 43.8967 14.0001 43.89H18.3601V48.25C18.3601 48.8052 18.58 49.3379 18.9716 49.7314C19.3633 50.1249 19.8949 50.3474 20.4501 50.35H23.2501C23.8053 50.3474 24.3369 50.1249 24.7286 49.7314C25.1202 49.3379 25.3401 48.8052 25.3401 48.25V43.89H29.7001C30.2553 43.89 30.788 43.6701 31.1815 43.2785C31.575 42.8868 31.7975 42.3552 31.8001 41.8V39C31.7988 38.7208 31.7419 38.4447 31.6327 38.1877C31.5235 37.9308 31.3641 37.6982 31.1639 37.5036C30.9637 37.309 30.7267 37.1563 30.4668 37.0544C30.2069 36.9524 29.9292 36.9034 29.6501 36.91V36.91Z" stroke="#DE6DA7" stroke-width="1.49" stroke-linecap="round" stroke-linejoin="round"/>
<path d="M29.6501 36.91H25.2901V32.55C25.2901 31.9948 25.0702 31.4621 24.6786 31.0686C24.2869 30.6751 23.7553 30.4526 23.2001 30.45H20.4001C19.8449 30.4526 19.3133 30.6751 18.9216 31.0686C18.53 31.4621 18.3101 31.9948 18.3101 32.55V36.91H14.0001C13.721 36.9034 13.4433 36.9524 13.1834 37.0544C12.9235 37.1563 12.6865 37.309 12.4863 37.5036C12.2861 37.6982 12.1267 37.9308 12.0175 38.1877C11.9083 38.4447 11.8513 38.7208 11.8501 39V41.8C11.8513 42.0792 11.9083 42.3553 12.0175 42.6123C12.1267 42.8692 12.2861 43.1018 12.4863 43.2964C12.6865 43.491 12.9235 43.6437 13.1834 43.7457C13.4433 43.8476 13.721 43.8967 14.0001 43.89H18.3601V48.25C18.3601 48.8052 18.58 49.3379 18.9716 49.7314C19.3633 50.1249 19.8949 50.3474 20.4501 50.35H23.2501C23.8053 50.3474 24.3369 50.1249 24.7286 49.7314C25.1202 49.3379 25.3401 48.8052 25.3401 48.25V43.89H29.7001C30.2553 43.89 30.788 43.6701 31.1815 43.2785C31.575 42.8868 31.7975 42.3552 31.8001 41.8V39C31.7988 38.7208 31.7419 38.4447 31.6327 38.1877C31.5235 37.9308 31.3641 37.6982 31.1639 37.5036C30.9637 37.309 30.7267 37.1563 30.4668 37.0544C30.2069 36.9524 29.9292 36.9034 29.6501 36.91V36.91Z" stroke="#E77BAF" stroke-width="1.3" stroke-linecap="round" stroke-linejoin="round"/>
<path d="M29.6501 36.91H25.2901V32.55C25.2901 31.9948 25.0702 31.4621 24.6786 31.0686C24.2869 30.6751 23.7553 30.4526 23.2001 30.45H20.4001C19.8449 30.4526 19.3133 30.6751 18.9216 31.0686C18.53 31.4621 18.3101 31.9948 18.3101 32.55V36.91H14.0001C13.721 36.9034 13.4433 36.9524 13.1834 37.0544C12.9235 37.1563 12.6865 37.309 12.4863 37.5036C12.2861 37.6982 12.1267 37.9308 12.0175 38.1877C11.9083 38.4447 11.8513 38.7208 11.8501 39V41.8C11.8513 42.0792 11.9083 42.3553 12.0175 42.6123C12.1267 42.8692 12.2861 43.1018 12.4863 43.2964C12.6865 43.491 12.9235 43.6437 13.1834 43.7457C13.4433 43.8476 13.721 43.8967 14.0001 43.89H18.3601V48.25C18.3601 48.8052 18.58 49.3379 18.9716 49.7314C19.3633 50.1249 19.8949 50.3474 20.4501 50.35H23.2501C23.8053 50.3474 24.3369 50.1249 24.7286 49.7314C25.1202 49.3379 25.3401 48.8052 25.3401 48.25V43.89H29.7001C30.2553 43.89 30.788 43.6701 31.1815 43.2785C31.575 42.8868 31.7975 42.3552 31.8001 41.8V39C31.7988 38.7208 31.7419 38.4447 31.6327 38.1877C31.5235 37.9308 31.3641 37.6982 31.1639 37.5036C30.9637 37.309 30.7267 37.1563 30.4668 37.0544C30.2069 36.9524 29.9292 36.9034 29.6501 36.91V36.91Z" stroke="#EE96C0" stroke-width="1.12" stroke-linecap="round" stroke-linejoin="round"/>
<path d="M29.6501 36.91H25.2901V32.55C25.2901 31.9948 25.0702 31.4621 24.6786 31.0686C24.2869 30.6751 23.7553 30.4526 23.2001 30.45H20.4001C19.8449 30.4526 19.3133 30.6751 18.9216 31.0686C18.53 31.4621 18.3101 31.9948 18.3101 32.55V36.91H14.0001C13.721 36.9034 13.4433 36.9524 13.1834 37.0544C12.9235 37.1563 12.6865 37.309 12.4863 37.5036C12.2861 37.6982 12.1267 37.9308 12.0175 38.1877C11.9083 38.4447 11.8513 38.7208 11.8501 39V41.8C11.8513 42.0792 11.9083 42.3553 12.0175 42.6123C12.1267 42.8692 12.2861 43.1018 12.4863 43.2964C12.6865 43.491 12.9235 43.6437 13.1834 43.7457C13.4433 43.8476 13.721 43.8967 14.0001 43.89H18.3601V48.25C18.3601 48.8052 18.58 49.3379 18.9716 49.7314C19.3633 50.1249 19.8949 50.3474 20.4501 50.35H23.2501C23.8053 50.3474 24.3369 50.1249 24.7286 49.7314C25.1202 49.3379 25.3401 48.8052 25.3401 48.25V43.89H29.7001C30.2553 43.89 30.788 43.6701 31.1815 43.2785C31.575 42.8868 31.7975 42.3552 31.8001 41.8V39C31.7988 38.7208 31.7419 38.4447 31.6327 38.1877C31.5235 37.9308 31.3641 37.6982 31.1639 37.5036C30.9637 37.309 30.7267 37.1563 30.4668 37.0544C30.2069 36.9524 29.9292 36.9034 29.6501 36.91V36.91Z" stroke="#F1A5C9" stroke-width="0.93" stroke-linecap="round" stroke-linejoin="round"/>
<path d="M29.6501 36.91H25.2901V32.55C25.2901 31.9948 25.0702 31.4621 24.6786 31.0686C24.2869 30.6751 23.7553 30.4526 23.2001 30.45H20.4001C19.8449 30.4526 19.3133 30.6751 18.9216 31.0686C18.53 31.4621 18.3101 31.9948 18.3101 32.55V36.91H14.0001C13.721 36.9034 13.4433 36.9524 13.1834 37.0544C12.9235 37.1563 12.6865 37.309 12.4863 37.5036C12.2861 37.6982 12.1267 37.9308 12.0175 38.1877C11.9083 38.4447 11.8513 38.7208 11.8501 39V41.8C11.8513 42.0792 11.9083 42.3553 12.0175 42.6123C12.1267 42.8692 12.2861 43.1018 12.4863 43.2964C12.6865 43.491 12.9235 43.6437 13.1834 43.7457C13.4433 43.8476 13.721 43.8967 14.0001 43.89H18.3601V48.25C18.3601 48.8052 18.58 49.3379 18.9716 49.7314C19.3633 50.1249 19.8949 50.3474 20.4501 50.35H23.2501C23.8053 50.3474 24.3369 50.1249 24.7286 49.7314C25.1202 49.3379 25.3401 48.8052 25.3401 48.25V43.89H29.7001C30.2553 43.89 30.788 43.6701 31.1815 43.2785C31.575 42.8868 31.7975 42.3552 31.8001 41.8V39C31.7988 38.7208 31.7419 38.4447 31.6327 38.1877C31.5235 37.9308 31.3641 37.6982 31.1639 37.5036C30.9637 37.309 30.7267 37.1563 30.4668 37.0544C30.2069 36.9524 29.9292 36.9034 29.6501 36.91V36.91Z" stroke="#F7C3DC" stroke-width="0.75" stroke-linecap="round" stroke-linejoin="round"/>
<path d="M29.6501 36.91H25.2901V32.55C25.2901 31.9948 25.0702 31.4621 24.6786 31.0686C24.2869 30.6751 23.7553 30.4526 23.2001 30.45H20.4001C19.8449 30.4526 19.3133 30.6751 18.9216 31.0686C18.53 31.4621 18.3101 31.9948 18.3101 32.55V36.91H14.0001C13.721 36.9034 13.4433 36.9524 13.1834 37.0544C12.9235 37.1563 12.6865 37.309 12.4863 37.5036C12.2861 37.6982 12.1267 37.9308 12.0175 38.1877C11.9083 38.4447 11.8513 38.7208 11.8501 39V41.8C11.8513 42.0792 11.9083 42.3553 12.0175 42.6123C12.1267 42.8692 12.2861 43.1018 12.4863 43.2964C12.6865 43.491 12.9235 43.6437 13.1834 43.7457C13.4433 43.8476 13.721 43.8967 14.0001 43.89H18.3601V48.25C18.3601 48.8052 18.58 49.3379 18.9716 49.7314C19.3633 50.1249 19.8949 50.3474 20.4501 50.35H23.2501C23.8053 50.3474 24.3369 50.1249 24.7286 49.7314C25.1202 49.3379 25.3401 48.8052 25.3401 48.25V43.89H29.7001C30.2553 43.89 30.788 43.6701 31.1815 43.2785C31.575 42.8868 31.7975 42.3552 31.8001 41.8V39C31.7988 38.7208 31.7419 38.4447 31.6327 38.1877C31.5235 37.9308 31.3641 37.6982 31.1639 37.5036C30.9637 37.309 30.7267 37.1563 30.4668 37.0544C30.2069 36.9524 29.9292 36.9034 29.6501 36.91V36.91Z" stroke="#F2CCE3" stroke-width="0.37" stroke-linecap="round" stroke-linejoin="round"/>
<path d="M29.6501 36.91H25.2901V32.55C25.2901 31.9948 25.0702 31.4621 24.6786 31.0686C24.2869 30.6751 23.7553 30.4526 23.2001 30.45H20.4001C19.8449 30.4526 19.3133 30.6751 18.9216 31.0686C18.53 31.4621 18.3101 31.9948 18.3101 32.55V36.91H14.0001C13.721 36.9034 13.4433 36.9524 13.1834 37.0544C12.9235 37.1563 12.6865 37.309 12.4863 37.5036C12.2861 37.6982 12.1267 37.9308 12.0175 38.1877C11.9083 38.4447 11.8513 38.7208 11.8501 39V41.8C11.8513 42.0792 11.9083 42.3553 12.0175 42.6123C12.1267 42.8692 12.2861 43.1018 12.4863 43.2964C12.6865 43.491 12.9235 43.6437 13.1834 43.7457C13.4433 43.8476 13.721 43.8967 14.0001 43.89H18.3601V48.25C18.3601 48.8052 18.58 49.3379 18.9716 49.7314C19.3633 50.1249 19.8949 50.3474 20.4501 50.35H23.2501C23.8053 50.3474 24.3369 50.1249 24.7286 49.7314C25.1202 49.3379 25.3401 48.8052 25.3401 48.25V43.89H29.7001C30.2553 43.89 30.788 43.6701 31.1815 43.2785C31.575 42.8868 31.7975 42.3552 31.8001 41.8V39C31.7988 38.7208 31.7419 38.4447 31.6327 38.1877C31.5235 37.9308 31.3641 37.6982 31.1639 37.5036C30.9637 37.309 30.7267 37.1563 30.4668 37.0544C30.2069 36.9524 29.9292 36.9034 29.6501 36.91V36.91Z" stroke="#F9DEED" stroke-width="0.19" stroke-linecap="round" stroke-linejoin="round"/>
<path d="M34.56 30.45C37 33.5806 38.2033 37.4992 37.9409 41.4596C37.6784 45.42 35.9685 49.1456 33.1368 51.9268C30.305 54.708 26.5493 56.3506 22.5848 56.5416C18.6203 56.7327 14.724 55.459 11.6378 52.9631C8.55174 50.4671 6.49144 46.9233 5.8493 43.0065C5.20715 39.0896 6.02804 35.0734 8.15562 31.7227C10.2832 28.372 13.5688 25.9209 17.3868 24.8361C21.2048 23.7513 25.2884 24.1086 28.86 25.84" stroke="#43C0EF" stroke-width="1.86" stroke-linecap="round" stroke-linejoin="round"/>
<path d="M34.56 30.45C37 33.5806 38.2033 37.4992 37.9409 41.4596C37.6784 45.42 35.9685 49.1456 33.1368 51.9268C30.305 54.708 26.5493 56.3506 22.5848 56.5416C18.6203 56.7327 14.724 55.459 11.6378 52.9631C8.55174 50.4671 6.49144 46.9233 5.8493 43.0065C5.20715 39.0896 6.02804 35.0734 8.15562 31.7227C10.2832 28.372 13.5688 25.9209 17.3868 24.8361C21.2048 23.7513 25.2884 24.1086 28.86 25.84" stroke="#4BC1ED" stroke-width="1.68" stroke-linecap="round" stroke-linejoin="round"/>
<path d="M34.56 30.45C37 33.5806 38.2033 37.4992 37.9409 41.4596C37.6784 45.42 35.9685 49.1456 33.1368 51.9268C30.305 54.708 26.5493 56.3506 22.5848 56.5416C18.6203 56.7327 14.724 55.459 11.6378 52.9631C8.55174 50.4671 6.49144 46.9233 5.8493 43.0065C5.20715 39.0896 6.02804 35.0734 8.15562 31.7227C10.2832 28.372 13.5688 25.9209 17.3868 24.8361C21.2048 23.7513 25.2884 24.1086 28.86 25.84" stroke="#5DC5EC" stroke-width="1.49" stroke-linecap="round" stroke-linejoin="round"/>
<path d="M34.56 30.45C37 33.5806 38.2033 37.4992 37.9409 41.4596C37.6784 45.42 35.9685 49.1456 33.1368 51.9268C30.305 54.708 26.5493 56.3506 22.5848 56.5416C18.6203 56.7327 14.724 55.459 11.6378 52.9631C8.55174 50.4671 6.49144 46.9233 5.8493 43.0065C5.20715 39.0896 6.02804 35.0734 8.15562 31.7227C10.2832 28.372 13.5688 25.9209 17.3868 24.8361C21.2048 23.7513 25.2884 24.1086 28.86 25.84" stroke="#6EC9EB" stroke-width="1.3" stroke-linecap="round" stroke-linejoin="round"/>
<path d="M34.56 30.45C37 33.5806 38.2033 37.4992 37.9409 41.4596C37.6784 45.42 35.9685 49.1456 33.1368 51.9268C30.305 54.708 26.5493 56.3506 22.5848 56.5416C18.6203 56.7327 14.724 55.459 11.6378 52.9631C8.55174 50.4671 6.49144 46.9233 5.8493 43.0065C5.20715 39.0896 6.02804 35.0734 8.15562 31.7227C10.2832 28.372 13.5688 25.9209 17.3868 24.8361C21.2048 23.7513 25.2884 24.1086 28.86 25.84" stroke="#7DCDEB" stroke-width="1.12" stroke-linecap="round" stroke-linejoin="round"/>
<path d="M34.56 30.45C37 33.5806 38.2033 37.4992 37.9409 41.4596C37.6784 45.42 35.9685 49.1456 33.1368 51.9268C30.305 54.708 26.5493 56.3506 22.5848 56.5416C18.6203 56.7327 14.724 55.459 11.6378 52.9631C8.55174 50.4671 6.49144 46.9233 5.8493 43.0065C5.20715 39.0896 6.02804 35.0734 8.15562 31.7227C10.2832 28.372 13.5688 25.9209 17.3868 24.8361C21.2048 23.7513 25.2884 24.1086 28.86 25.84" stroke="#88CFE8" stroke-width="0.93" stroke-linecap="round" stroke-linejoin="round"/>
<path d="M34.56 30.45C37 33.5806 38.2033 37.4992 37.9409 41.4596C37.6784 45.42 35.9685 49.1456 33.1368 51.9268C30.305 54.708 26.5493 56.3506 22.5848 56.5416C18.6203 56.7327 14.724 55.459 11.6378 52.9631C8.55174 50.4671 6.49144 46.9233 5.8493 43.0065C5.20715 39.0896 6.02804 35.0734 8.15562 31.7227C10.2832 28.372 13.5688 25.9209 17.3868 24.8361C21.2048 23.7513 25.2884 24.1086 28.86 25.84" stroke="#B1DEEF" stroke-width="0.75" stroke-linecap="round" stroke-linejoin="round"/>
<path d="M34.56 30.45C37 33.5806 38.2033 37.4992 37.9409 41.4596C37.6784 45.42 35.9685 49.1456 33.1368 51.9268C30.305 54.708 26.5493 56.3506 22.5848 56.5416C18.6203 56.7327 14.724 55.459 11.6378 52.9631C8.55174 50.4671 6.49144 46.9233 5.8493 43.0065C5.20715 39.0896 6.02804 35.0734 8.15562 31.7227C10.2832 28.372 13.5688 25.9209 17.3868 24.8361C21.2048 23.7513 25.2884 24.1086 28.86 25.84" stroke="#C2E4ED" stroke-width="0.37" stroke-linecap="round" stroke-linejoin="round"/>
<path d="M34.56 30.45C37 33.5806 38.2033 37.4992 37.9409 41.4596C37.6784 45.42 35.9685 49.1456 33.1368 51.9268C30.305 54.708 26.5493 56.3506 22.5848 56.5416C18.6203 56.7327 14.724 55.459 11.6378 52.9631C8.55174 50.4671 6.49144 46.9233 5.8493 43.0065C5.20715 39.0896 6.02804 35.0734 8.15562 31.7227C10.2832 28.372 13.5688 25.9209 17.3868 24.8361C21.2048 23.7513 25.2884 24.1086 28.86 25.84" stroke="#D8EDF4" stroke-width="0.19" stroke-linecap="round" stroke-linejoin="round"/>
<path d="M85.9999 32.68C86.0017 33.2882 85.8223 33.8831 85.4846 34.3889C85.1468 34.8946 84.666 35.2882 84.1036 35.5195C83.5411 35.7508 82.9224 35.8092 82.3266 35.6873C81.7308 35.5655 81.1848 35.2688 80.7583 34.8352C80.3319 34.4016 80.0443 33.8508 79.9322 33.253C79.8202 32.6553 79.8889 32.0377 80.1294 31.4791C80.3699 30.9206 80.7715 30.4463 81.2827 30.117C81.794 29.7876 82.3918 29.6181 82.9999 29.63C83.3981 29.63 83.7923 29.7092 84.1596 29.8631C84.5269 30.0169 84.8598 30.2424 85.1391 30.5263C85.4183 30.8102 85.6382 31.1468 85.786 31.5166C85.9338 31.8864 86.0065 32.2819 85.9999 32.68Z" stroke="#FFE003" stroke-width="1.86" stroke-linecap="round" stroke-linejoin="round"/>
<path d="M85.9999 32.68C86.0017 33.2882 85.8223 33.8831 85.4846 34.3889C85.1468 34.8946 84.666 35.2882 84.1036 35.5195C83.5411 35.7508 82.9224 35.8092 82.3266 35.6873C81.7308 35.5655 81.1848 35.2688 80.7583 34.8352C80.3319 34.4016 80.0443 33.8508 79.9322 33.253C79.8202 32.6553 79.8889 32.0377 80.1294 31.4791C80.3699 30.9206 80.7715 30.4463 81.2827 30.117C81.794 29.7876 82.3918 29.6181 82.9999 29.63C83.3981 29.63 83.7923 29.7092 84.1596 29.8631C84.5269 30.0169 84.8598 30.2424 85.1391 30.5263C85.4183 30.8102 85.6382 31.1468 85.786 31.5166C85.9338 31.8864 86.0065 32.2819 85.9999 32.68Z" stroke="#FFE313" stroke-width="1.68" stroke-linecap="round" stroke-linejoin="round"/>
<path d="M85.9999 32.68C86.0017 33.2882 85.8223 33.8831 85.4846 34.3889C85.1468 34.8946 84.666 35.2882 84.1036 35.5195C83.5411 35.7508 82.9224 35.8092 82.3266 35.6873C81.7308 35.5655 81.1848 35.2688 80.7583 34.8352C80.3319 34.4016 80.0443 33.8508 79.9322 33.253C79.8202 32.6553 79.8889 32.0377 80.1294 31.4791C80.3699 30.9206 80.7715 30.4463 81.2827 30.117C81.794 29.7876 82.3918 29.6181 82.9999 29.63C83.3981 29.63 83.7923 29.7092 84.1596 29.8631C84.5269 30.0169 84.8598 30.2424 85.1391 30.5263C85.4183 30.8102 85.6382 31.1468 85.786 31.5166C85.9338 31.8864 86.0065 32.2819 85.9999 32.68Z" stroke="#FFE835" stroke-width="1.49" stroke-linecap="round" stroke-linejoin="round"/>
<path d="M85.9999 32.68C86.0017 33.2882 85.8223 33.8831 85.4846 34.3889C85.1468 34.8946 84.666 35.2882 84.1036 35.5195C83.5411 35.7508 82.9224 35.8092 82.3266 35.6873C81.7308 35.5655 81.1848 35.2688 80.7583 34.8352C80.3319 34.4016 80.0443 33.8508 79.9322 33.253C79.8202 32.6553 79.8889 32.0377 80.1294 31.4791C80.3699 30.9206 80.7715 30.4463 81.2827 30.117C81.794 29.7876 82.3918 29.6181 82.9999 29.63C83.3981 29.63 83.7923 29.7092 84.1596 29.8631C84.5269 30.0169 84.8598 30.2424 85.1391 30.5263C85.4183 30.8102 85.6382 31.1468 85.786 31.5166C85.9338 31.8864 86.0065 32.2819 85.9999 32.68Z" stroke="#FFEB51" stroke-width="1.3" stroke-linecap="round" stroke-linejoin="round"/>
<path d="M85.9999 32.68C86.0017 33.2882 85.8223 33.8831 85.4846 34.3889C85.1468 34.8946 84.666 35.2882 84.1036 35.5195C83.5411 35.7508 82.9224 35.8092 82.3266 35.6873C81.7308 35.5655 81.1848 35.2688 80.7583 34.8352C80.3319 34.4016 80.0443 33.8508 79.9322 33.253C79.8202 32.6553 79.8889 32.0377 80.1294 31.4791C80.3699 30.9206 80.7715 30.4463 81.2827 30.117C81.794 29.7876 82.3918 29.6181 82.9999 29.63C83.3981 29.63 83.7923 29.7092 84.1596 29.8631C84.5269 30.0169 84.8598 30.2424 85.1391 30.5263C85.4183 30.8102 85.6382 31.1468 85.786 31.5166C85.9338 31.8864 86.0065 32.2819 85.9999 32.68Z" stroke="#FFEE6E" stroke-width="1.12" stroke-linecap="round" stroke-linejoin="round"/>
<path d="M85.9999 32.68C86.0017 33.2882 85.8223 33.8831 85.4846 34.3889C85.1468 34.8946 84.666 35.2882 84.1036 35.5195C83.5411 35.7508 82.9224 35.8092 82.3266 35.6873C81.7308 35.5655 81.1848 35.2688 80.7583 34.8352C80.3319 34.4016 80.0443 33.8508 79.9322 33.253C79.8202 32.6553 79.8889 32.0377 80.1294 31.4791C80.3699 30.9206 80.7715 30.4463 81.2827 30.117C81.794 29.7876 82.3918 29.6181 82.9999 29.63C83.3981 29.63 83.7923 29.7092 84.1596 29.8631C84.5269 30.0169 84.8598 30.2424 85.1391 30.5263C85.4183 30.8102 85.6382 31.1468 85.786 31.5166C85.9338 31.8864 86.0065 32.2819 85.9999 32.68Z" stroke="#FFF18D" stroke-width="0.93" stroke-linecap="round" stroke-linejoin="round"/>
<path d="M85.9999 32.68C86.0017 33.2882 85.8223 33.8831 85.4846 34.3889C85.1468 34.8946 84.666 35.2882 84.1036 35.5195C83.5411 35.7508 82.9224 35.8092 82.3266 35.6873C81.7308 35.5655 81.1848 35.2688 80.7583 34.8352C80.3319 34.4016 80.0443 33.8508 79.9322 33.253C79.8202 32.6553 79.8889 32.0377 80.1294 31.4791C80.3699 30.9206 80.7715 30.4463 81.2827 30.117C81.794 29.7876 82.3918 29.6181 82.9999 29.63C83.3981 29.63 83.7923 29.7092 84.1596 29.8631C84.5269 30.0169 84.8598 30.2424 85.1391 30.5263C85.4183 30.8102 85.6382 31.1468 85.786 31.5166C85.9338 31.8864 86.0065 32.2819 85.9999 32.68Z" stroke="#FFF5AC" stroke-width="0.75" stroke-linecap="round" stroke-linejoin="round"/>
<path d="M85.9999 32.68C86.0017 33.2882 85.8223 33.8831 85.4846 34.3889C85.1468 34.8946 84.666 35.2882 84.1036 35.5195C83.5411 35.7508 82.9224 35.8092 82.3266 35.6873C81.7308 35.5655 81.1848 35.2688 80.7583 34.8352C80.3319 34.4016 80.0443 33.8508 79.9322 33.253C79.8202 32.6553 79.8889 32.0377 80.1294 31.4791C80.3699 30.9206 80.7715 30.4463 81.2827 30.117C81.794 29.7876 82.3918 29.6181 82.9999 29.63C83.3981 29.63 83.7923 29.7092 84.1596 29.8631C84.5269 30.0169 84.8598 30.2424 85.1391 30.5263C85.4183 30.8102 85.6382 31.1468 85.786 31.5166C85.9338 31.8864 86.0065 32.2819 85.9999 32.68Z" stroke="#FDF7C7" stroke-width="0.37" stroke-linecap="round" stroke-linejoin="round"/>
<path d="M86.0003 48.12C86.0121 48.7302 85.8413 49.3299 85.5096 49.8422C85.178 50.3545 84.7008 50.756 84.1393 50.995C83.5777 51.234 82.9576 51.2997 82.3585 51.1835C81.7593 51.0673 81.2086 50.7747 80.7771 50.3432C80.3456 49.9117 80.0529 49.3609 79.9368 48.7618C79.8206 48.1627 79.8863 47.5425 80.1253 46.981C80.3643 46.4195 80.7657 45.9423 81.2781 45.6106C81.7904 45.279 82.3901 45.1082 83.0003 45.12C83.7911 45.1354 84.5453 45.4564 85.1046 46.0157C85.6639 46.575 85.9849 47.3292 86.0003 48.12V48.12Z" stroke="#E82C88" stroke-width="1.86" stroke-linecap="round" stroke-linejoin="round"/>
<path d="M86.0003 48.12C86.0121 48.7302 85.8413 49.3299 85.5096 49.8422C85.178 50.3545 84.7008 50.756 84.1393 50.995C83.5777 51.234 82.9576 51.2997 82.3585 51.1835C81.7593 51.0673 81.2086 50.7747 80.7771 50.3432C80.3456 49.9117 80.0529 49.3609 79.9368 48.7618C79.8206 48.1627 79.8863 47.5425 80.1253 46.981C80.3643 46.4195 80.7657 45.9423 81.2781 45.6106C81.7904 45.279 82.3901 45.1082 83.0003 45.12C83.7911 45.1354 84.5453 45.4564 85.1046 46.0157C85.6639 46.575 85.9849 47.3292 86.0003 48.12V48.12Z" stroke="#E44592" stroke-width="1.68" stroke-linecap="round" stroke-linejoin="round"/>
<path d="M86.0003 48.12C86.0121 48.7302 85.8413 49.3299 85.5096 49.8422C85.178 50.3545 84.7008 50.756 84.1393 50.995C83.5777 51.234 82.9576 51.2997 82.3585 51.1835C81.7593 51.0673 81.2086 50.7747 80.7771 50.3432C80.3456 49.9117 80.0529 49.3609 79.9368 48.7618C79.8206 48.1627 79.8863 47.5425 80.1253 46.981C80.3643 46.4195 80.7657 45.9423 81.2781 45.6106C81.7904 45.279 82.3901 45.1082 83.0003 45.12C83.7911 45.1354 84.5453 45.4564 85.1046 46.0157C85.6639 46.575 85.9849 47.3292 86.0003 48.12V48.12Z" stroke="#DE6DA7" stroke-width="1.49" stroke-linecap="round" stroke-linejoin="round"/>
<path d="M86.0003 48.12C86.0121 48.7302 85.8413 49.3299 85.5096 49.8422C85.178 50.3545 84.7008 50.756 84.1393 50.995C83.5777 51.234 82.9576 51.2997 82.3585 51.1835C81.7593 51.0673 81.2086 50.7747 80.7771 50.3432C80.3456 49.9117 80.0529 49.3609 79.9368 48.7618C79.8206 48.1627 79.8863 47.5425 80.1253 46.981C80.3643 46.4195 80.7657 45.9423 81.2781 45.6106C81.7904 45.279 82.3901 45.1082 83.0003 45.12C83.7911 45.1354 84.5453 45.4564 85.1046 46.0157C85.6639 46.575 85.9849 47.3292 86.0003 48.12V48.12Z" stroke="#E77BAF" stroke-width="1.3" stroke-linecap="round" stroke-linejoin="round"/>
<path d="M86.0003 48.12C86.0121 48.7302 85.8413 49.3299 85.5096 49.8422C85.178 50.3545 84.7008 50.756 84.1393 50.995C83.5777 51.234 82.9576 51.2997 82.3585 51.1835C81.7593 51.0673 81.2086 50.7747 80.7771 50.3432C80.3456 49.9117 80.0529 49.3609 79.9368 48.7618C79.8206 48.1627 79.8863 47.5425 80.1253 46.981C80.3643 46.4195 80.7657 45.9423 81.2781 45.6106C81.7904 45.279 82.3901 45.1082 83.0003 45.12C83.7911 45.1354 84.5453 45.4564 85.1046 46.0157C85.6639 46.575 85.9849 47.3292 86.0003 48.12V48.12Z" stroke="#EE96C0" stroke-width="1.12" stroke-linecap="round" stroke-linejoin="round"/>
<path d="M86.0003 48.12C86.0121 48.7302 85.8413 49.3299 85.5096 49.8422C85.178 50.3545 84.7008 50.756 84.1393 50.995C83.5777 51.234 82.9576 51.2997 82.3585 51.1835C81.7593 51.0673 81.2086 50.7747 80.7771 50.3432C80.3456 49.9117 80.0529 49.3609 79.9368 48.7618C79.8206 48.1627 79.8863 47.5425 80.1253 46.981C80.3643 46.4195 80.7657 45.9423 81.2781 45.6106C81.7904 45.279 82.3901 45.1082 83.0003 45.12C83.7911 45.1354 84.5453 45.4564 85.1046 46.0157C85.6639 46.575 85.9849 47.3292 86.0003 48.12V48.12Z" stroke="#F1A5C9" stroke-width="0.93" stroke-linecap="round" stroke-linejoin="round"/>
<path d="M86.0003 48.12C86.0121 48.7302 85.8413 49.3299 85.5096 49.8422C85.178 50.3545 84.7008 50.756 84.1393 50.995C83.5777 51.234 82.9576 51.2997 82.3585 51.1835C81.7593 51.0673 81.2086 50.7747 80.7771 50.3432C80.3456 49.9117 80.0529 49.3609 79.9368 48.7618C79.8206 48.1627 79.8863 47.5425 80.1253 46.981C80.3643 46.4195 80.7657 45.9423 81.2781 45.6106C81.7904 45.279 82.3901 45.1082 83.0003 45.12C83.7911 45.1354 84.5453 45.4564 85.1046 46.0157C85.6639 46.575 85.9849 47.3292 86.0003 48.12V48.12Z" stroke="#F7C3DC" stroke-width="0.75" stroke-linecap="round" stroke-linejoin="round"/>
<path d="M86.0003 48.12C86.0121 48.7302 85.8413 49.3299 85.5096 49.8422C85.178 50.3545 84.7008 50.756 84.1393 50.995C83.5777 51.234 82.9576 51.2997 82.3585 51.1835C81.7593 51.0673 81.2086 50.7747 80.7771 50.3432C80.3456 49.9117 80.0529 49.3609 79.9368 48.7618C79.8206 48.1627 79.8863 47.5425 80.1253 46.981C80.3643 46.4195 80.7657 45.9423 81.2781 45.6106C81.7904 45.279 82.3901 45.1082 83.0003 45.12C83.7911 45.1354 84.5453 45.4564 85.1046 46.0157C85.6639 46.575 85.9849 47.3292 86.0003 48.12V48.12Z" stroke="#F2CCE3" stroke-width="0.37" stroke-linecap="round" stroke-linejoin="round"/>
<path d="M86.0003 48.12C86.0121 48.7302 85.8413 49.3299 85.5096 49.8422C85.178 50.3545 84.7008 50.756 84.1393 50.995C83.5777 51.234 82.9576 51.2997 82.3585 51.1835C81.7593 51.0673 81.2086 50.7747 80.7771 50.3432C80.3456 49.9117 80.0529 49.3609 79.9368 48.7618C79.8206 48.1627 79.8863 47.5425 80.1253 46.981C80.3643 46.4195 80.7657 45.9423 81.2781 45.6106C81.7904 45.279 82.3901 45.1082 83.0003 45.12C83.7911 45.1354 84.5453 45.4564 85.1046 46.0157C85.6639 46.575 85.9849 47.3292 86.0003 48.12V48.12Z" stroke="#F9DEED" stroke-width="0.19" stroke-linecap="round" stroke-linejoin="round"/>
<path d="M90.6503 43.46C90.0427 43.4719 89.4452 43.3026 88.9342 42.9737C88.4232 42.6448 88.0216 42.1712 87.7808 41.6132C87.54 41.0552 87.4707 40.4381 87.5819 39.8407C87.6931 39.2432 87.9798 38.6923 88.4052 38.2584C88.8307 37.8244 89.3757 37.527 89.9709 37.4039C90.566 37.2809 91.1844 37.3379 91.747 37.5676C92.3096 37.7974 92.7911 38.1895 93.1301 38.6939C93.4691 39.1983 93.6502 39.7923 93.6503 40.4C93.653 41.2021 93.3397 41.9729 92.7782 42.5456C92.2167 43.1184 91.4522 43.4469 90.6503 43.46Z" stroke="#E82C88" stroke-width="1.86" stroke-linecap="round" stroke-linejoin="round"/>
<path d="M90.6503 43.46C90.0427 43.4719 89.4452 43.3026 88.9342 42.9737C88.4232 42.6448 88.0216 42.1712 87.7808 41.6132C87.54 41.0552 87.4707 40.4381 87.5819 39.8407C87.6931 39.2432 87.9798 38.6923 88.4052 38.2584C88.8307 37.8244 89.3757 37.527 89.9709 37.4039C90.566 37.2809 91.1844 37.3379 91.747 37.5676C92.3096 37.7974 92.7911 38.1895 93.1301 38.6939C93.4691 39.1983 93.6502 39.7923 93.6503 40.4C93.653 41.2021 93.3397 41.9729 92.7782 42.5456C92.2167 43.1184 91.4522 43.4469 90.6503 43.46Z" stroke="#E44592" stroke-width="1.68" stroke-linecap="round" stroke-linejoin="round"/>
<path d="M90.6503 43.46C90.0427 43.4719 89.4452 43.3026 88.9342 42.9737C88.4232 42.6448 88.0216 42.1712 87.7808 41.6132C87.54 41.0552 87.4707 40.4381 87.5819 39.8407C87.6931 39.2432 87.9798 38.6923 88.4052 38.2584C88.8307 37.8244 89.3757 37.527 89.9709 37.4039C90.566 37.2809 91.1844 37.3379 91.747 37.5676C92.3096 37.7974 92.7911 38.1895 93.1301 38.6939C93.4691 39.1983 93.6502 39.7923 93.6503 40.4C93.653 41.2021 93.3397 41.9729 92.7782 42.5456C92.2167 43.1184 91.4522 43.4469 90.6503 43.46Z" stroke="#DE6DA7" stroke-width="1.49" stroke-linecap="round" stroke-linejoin="round"/>
<path d="M90.6503 43.46C90.0427 43.4719 89.4452 43.3026 88.9342 42.9737C88.4232 42.6448 88.0216 42.1712 87.7808 41.6132C87.54 41.0552 87.4707 40.4381 87.5819 39.8407C87.6931 39.2432 87.9798 38.6923 88.4052 38.2584C88.8307 37.8244 89.3757 37.527 89.9709 37.4039C90.566 37.2809 91.1844 37.3379 91.747 37.5676C92.3096 37.7974 92.7911 38.1895 93.1301 38.6939C93.4691 39.1983 93.6502 39.7923 93.6503 40.4C93.653 41.2021 93.3397 41.9729 92.7782 42.5456C92.2167 43.1184 91.4522 43.4469 90.6503 43.46Z" stroke="#E77BAF" stroke-width="1.3" stroke-linecap="round" stroke-linejoin="round"/>
<path d="M90.6503 43.46C90.0427 43.4719 89.4452 43.3026 88.9342 42.9737C88.4232 42.6448 88.0216 42.1712 87.7808 41.6132C87.54 41.0552 87.4707 40.4381 87.5819 39.8407C87.6931 39.2432 87.9798 38.6923 88.4052 38.2584C88.8307 37.8244 89.3757 37.527 89.9709 37.4039C90.566 37.2809 91.1844 37.3379 91.747 37.5676C92.3096 37.7974 92.7911 38.1895 93.1301 38.6939C93.4691 39.1983 93.6502 39.7923 93.6503 40.4C93.653 41.2021 93.3397 41.9729 92.7782 42.5456C92.2167 43.1184 91.4522 43.4469 90.6503 43.46Z" stroke="#EE96C0" stroke-width="1.12" stroke-linecap="round" stroke-linejoin="round"/>
<path d="M90.6503 43.46C90.0427 43.4719 89.4452 43.3026 88.9342 42.9737C88.4232 42.6448 88.0216 42.1712 87.7808 41.6132C87.54 41.0552 87.4707 40.4381 87.5819 39.8407C87.6931 39.2432 87.9798 38.6923 88.4052 38.2584C88.8307 37.8244 89.3757 37.527 89.9709 37.4039C90.566 37.2809 91.1844 37.3379 91.747 37.5676C92.3096 37.7974 92.7911 38.1895 93.1301 38.6939C93.4691 39.1983 93.6502 39.7923 93.6503 40.4C93.653 41.2021 93.3397 41.9729 92.7782 42.5456C92.2167 43.1184 91.4522 43.4469 90.6503 43.46Z" stroke="#F1A5C9" stroke-width="0.93" stroke-linecap="round" stroke-linejoin="round"/>
<path d="M90.6503 43.46C90.0427 43.4719 89.4452 43.3026 88.9342 42.9737C88.4232 42.6448 88.0216 42.1712 87.7808 41.6132C87.54 41.0552 87.4707 40.4381 87.5819 39.8407C87.6931 39.2432 87.9798 38.6923 88.4052 38.2584C88.8307 37.8244 89.3757 37.527 89.9709 37.4039C90.566 37.2809 91.1844 37.3379 91.747 37.5676C92.3096 37.7974 92.7911 38.1895 93.1301 38.6939C93.4691 39.1983 93.6502 39.7923 93.6503 40.4C93.653 41.2021 93.3397 41.9729 92.7782 42.5456C92.2167 43.1184 91.4522 43.4469 90.6503 43.46Z" stroke="#F7C3DC" stroke-width="0.75" stroke-linecap="round" stroke-linejoin="round"/>
<path d="M90.6503 43.46C90.0427 43.4719 89.4452 43.3026 88.9342 42.9737C88.4232 42.6448 88.0216 42.1712 87.7808 41.6132C87.54 41.0552 87.4707 40.4381 87.5819 39.8407C87.6931 39.2432 87.9798 38.6923 88.4052 38.2584C88.8307 37.8244 89.3757 37.527 89.9709 37.4039C90.566 37.2809 91.1844 37.3379 91.747 37.5676C92.3096 37.7974 92.7911 38.1895 93.1301 38.6939C93.4691 39.1983 93.6502 39.7923 93.6503 40.4C93.653 41.2021 93.3397 41.9729 92.7782 42.5456C92.2167 43.1184 91.4522 43.4469 90.6503 43.46Z" stroke="#F2CCE3" stroke-width="0.37" stroke-linecap="round" stroke-linejoin="round"/>
<path d="M90.6503 43.46C90.0427 43.4719 89.4452 43.3026 88.9342 42.9737C88.4232 42.6448 88.0216 42.1712 87.7808 41.6132C87.54 41.0552 87.4707 40.4381 87.5819 39.8407C87.6931 39.2432 87.9798 38.6923 88.4052 38.2584C88.8307 37.8244 89.3757 37.527 89.9709 37.4039C90.566 37.2809 91.1844 37.3379 91.747 37.5676C92.3096 37.7974 92.7911 38.1895 93.1301 38.6939C93.4691 39.1983 93.6502 39.7923 93.6503 40.4C93.653 41.2021 93.3397 41.9729 92.7782 42.5456C92.2167 43.1184 91.4522 43.4469 90.6503 43.46Z" stroke="#F9DEED" stroke-width="0.19" stroke-linecap="round" stroke-linejoin="round"/>
<path d="M75.2101 43.46C74.6045 43.462 74.0119 43.2842 73.5074 42.9492C73.0028 42.6141 72.6091 42.1369 72.3759 41.578C72.1428 41.019 72.0808 40.4034 72.1977 39.8092C72.3147 39.2149 72.6053 38.6688 73.0329 38.2398C73.4604 37.8109 74.0056 37.5184 74.5995 37.3995C75.1933 37.2807 75.8091 37.3407 76.3688 37.572C76.9286 37.8033 77.407 38.1955 77.7437 38.6989C78.0804 39.2023 78.2601 39.7944 78.2601 40.4C78.2601 41.2098 77.9391 41.9866 77.3674 42.5602C76.7957 43.1338 76.02 43.4574 75.2101 43.46Z" stroke="#FFE003" stroke-width="1.86" stroke-linecap="round" stroke-linejoin="round"/>
<path d="M75.2101 43.46C74.6045 43.462 74.0119 43.2842 73.5074 42.9492C73.0028 42.6141 72.6091 42.1369 72.3759 41.578C72.1428 41.019 72.0808 40.4034 72.1977 39.8092C72.3147 39.2149 72.6053 38.6688 73.0329 38.2398C73.4604 37.8109 74.0056 37.5184 74.5995 37.3995C75.1933 37.2807 75.8091 37.3407 76.3688 37.572C76.9286 37.8033 77.407 38.1955 77.7437 38.6989C78.0804 39.2023 78.2601 39.7944 78.2601 40.4C78.2601 41.2098 77.9391 41.9866 77.3674 42.5602C76.7957 43.1338 76.02 43.4574 75.2101 43.46Z" stroke="#FFE313" stroke-width="1.68" stroke-linecap="round" stroke-linejoin="round"/>
<path d="M75.2101 43.46C74.6045 43.462 74.0119 43.2842 73.5074 42.9492C73.0028 42.6141 72.6091 42.1369 72.3759 41.578C72.1428 41.019 72.0808 40.4034 72.1977 39.8092C72.3147 39.2149 72.6053 38.6688 73.0329 38.2398C73.4604 37.8109 74.0056 37.5184 74.5995 37.3995C75.1933 37.2807 75.8091 37.3407 76.3688 37.572C76.9286 37.8033 77.407 38.1955 77.7437 38.6989C78.0804 39.2023 78.2601 39.7944 78.2601 40.4C78.2601 41.2098 77.9391 41.9866 77.3674 42.5602C76.7957 43.1338 76.02 43.4574 75.2101 43.46Z" stroke="#FFE835" stroke-width="1.49" stroke-linecap="round" stroke-linejoin="round"/>
<path d="M75.2101 43.46C74.6045 43.462 74.0119 43.2842 73.5074 42.9492C73.0028 42.6141 72.6091 42.1369 72.3759 41.578C72.1428 41.019 72.0808 40.4034 72.1977 39.8092C72.3147 39.2149 72.6053 38.6688 73.0329 38.2398C73.4604 37.8109 74.0056 37.5184 74.5995 37.3995C75.1933 37.2807 75.8091 37.3407 76.3688 37.572C76.9286 37.8033 77.407 38.1955 77.7437 38.6989C78.0804 39.2023 78.2601 39.7944 78.2601 40.4C78.2601 41.2098 77.9391 41.9866 77.3674 42.5602C76.7957 43.1338 76.02 43.4574 75.2101 43.46Z" stroke="#FFEB51" stroke-width="1.3" stroke-linecap="round" stroke-linejoin="round"/>
<path d="M75.2101 43.46C74.6045 43.462 74.0119 43.2842 73.5074 42.9492C73.0028 42.6141 72.6091 42.1369 72.3759 41.578C72.1428 41.019 72.0808 40.4034 72.1977 39.8092C72.3147 39.2149 72.6053 38.6688 73.0329 38.2398C73.4604 37.8109 74.0056 37.5184 74.5995 37.3995C75.1933 37.2807 75.8091 37.3407 76.3688 37.572C76.9286 37.8033 77.407 38.1955 77.7437 38.6989C78.0804 39.2023 78.2601 39.7944 78.2601 40.4C78.2601 41.2098 77.9391 41.9866 77.3674 42.5602C76.7957 43.1338 76.02 43.4574 75.2101 43.46Z" stroke="#FFEE6E" stroke-width="1.12" stroke-linecap="round" stroke-linejoin="round"/>
<path d="M75.2101 43.46C74.6045 43.462 74.0119 43.2842 73.5074 42.9492C73.0028 42.6141 72.6091 42.1369 72.3759 41.578C72.1428 41.019 72.0808 40.4034 72.1977 39.8092C72.3147 39.2149 72.6053 38.6688 73.0329 38.2398C73.4604 37.8109 74.0056 37.5184 74.5995 37.3995C75.1933 37.2807 75.8091 37.3407 76.3688 37.572C76.9286 37.8033 77.407 38.1955 77.7437 38.6989C78.0804 39.2023 78.2601 39.7944 78.2601 40.4C78.2601 41.2098 77.9391 41.9866 77.3674 42.5602C76.7957 43.1338 76.02 43.4574 75.2101 43.46Z" stroke="#FFF18D" stroke-width="0.93" stroke-linecap="round" stroke-linejoin="round"/>
<path d="M75.2101 43.46C74.6045 43.462 74.0119 43.2842 73.5074 42.9492C73.0028 42.6141 72.6091 42.1369 72.3759 41.578C72.1428 41.019 72.0808 40.4034 72.1977 39.8092C72.3147 39.2149 72.6053 38.6688 73.0329 38.2398C73.4604 37.8109 74.0056 37.5184 74.5995 37.3995C75.1933 37.2807 75.8091 37.3407 76.3688 37.572C76.9286 37.8033 77.407 38.1955 77.7437 38.6989C78.0804 39.2023 78.2601 39.7944 78.2601 40.4C78.2601 41.2098 77.9391 41.9866 77.3674 42.5602C76.7957 43.1338 76.02 43.4574 75.2101 43.46Z" stroke="#FFF5AC" stroke-width="0.75" stroke-linecap="round" stroke-linejoin="round"/>
<path d="M75.2101 43.46C74.6045 43.462 74.0119 43.2842 73.5074 42.9492C73.0028 42.6141 72.6091 42.1369 72.3759 41.578C72.1428 41.019 72.0808 40.4034 72.1977 39.8092C72.3147 39.2149 72.6053 38.6688 73.0329 38.2398C73.4604 37.8109 74.0056 37.5184 74.5995 37.3995C75.1933 37.2807 75.8091 37.3407 76.3688 37.572C76.9286 37.8033 77.407 38.1955 77.7437 38.6989C78.0804 39.2023 78.2601 39.7944 78.2601 40.4C78.2601 41.2098 77.9391 41.9866 77.3674 42.5602C76.7957 43.1338 76.02 43.4574 75.2101 43.46Z" stroke="#FDF7C7" stroke-width="0.37" stroke-linecap="round" stroke-linejoin="round"/>
<path d="M99.11 40.4C99.11 43.6001 98.1611 46.7283 96.3832 49.3891C94.6053 52.0499 92.0783 54.1237 89.1218 55.3484C86.1653 56.573 82.9121 56.8934 79.7734 56.2691C76.6348 55.6448 73.7518 54.1038 71.489 51.841C69.2262 49.5782 67.6852 46.6952 67.0609 43.5566C66.4366 40.4179 66.757 37.1647 67.9816 34.2082C69.2063 31.2517 71.2801 28.7247 73.9409 26.9468C76.6017 25.1689 79.7299 24.22 82.93 24.22C87.2212 24.22 91.3367 25.9247 94.371 28.959C97.4053 31.9934 99.11 36.1088 99.11 40.4V40.4Z" stroke="#43C0EF" stroke-width="1.86" stroke-linecap="round" stroke-linejoin="round"/>
<path d="M99.11 40.4C99.11 43.6001 98.1611 46.7283 96.3832 49.3891C94.6053 52.0499 92.0783 54.1237 89.1218 55.3484C86.1653 56.573 82.9121 56.8934 79.7734 56.2691C76.6348 55.6448 73.7518 54.1038 71.489 51.841C69.2262 49.5782 67.6852 46.6952 67.0609 43.5566C66.4366 40.4179 66.757 37.1647 67.9816 34.2082C69.2063 31.2517 71.2801 28.7247 73.9409 26.9468C76.6017 25.1689 79.7299 24.22 82.93 24.22C87.2212 24.22 91.3367 25.9247 94.371 28.959C97.4053 31.9934 99.11 36.1088 99.11 40.4V40.4Z" stroke="#4BC1ED" stroke-width="1.68" stroke-linecap="round" stroke-linejoin="round"/>
<path d="M99.11 40.4C99.11 43.6001 98.1611 46.7283 96.3832 49.3891C94.6053 52.0499 92.0783 54.1237 89.1218 55.3484C86.1653 56.573 82.9121 56.8934 79.7734 56.2691C76.6348 55.6448 73.7518 54.1038 71.489 51.841C69.2262 49.5782 67.6852 46.6952 67.0609 43.5566C66.4366 40.4179 66.757 37.1647 67.9816 34.2082C69.2063 31.2517 71.2801 28.7247 73.9409 26.9468C76.6017 25.1689 79.7299 24.22 82.93 24.22C87.2212 24.22 91.3367 25.9247 94.371 28.959C97.4053 31.9934 99.11 36.1088 99.11 40.4V40.4Z" stroke="#5DC5EC" stroke-width="1.49" stroke-linecap="round" stroke-linejoin="round"/>
<path d="M99.11 40.4C99.11 43.6001 98.1611 46.7283 96.3832 49.3891C94.6053 52.0499 92.0783 54.1237 89.1218 55.3484C86.1653 56.573 82.9121 56.8934 79.7734 56.2691C76.6348 55.6448 73.7518 54.1038 71.489 51.841C69.2262 49.5782 67.6852 46.6952 67.0609 43.5566C66.4366 40.4179 66.757 37.1647 67.9816 34.2082C69.2063 31.2517 71.2801 28.7247 73.9409 26.9468C76.6017 25.1689 79.7299 24.22 82.93 24.22C87.2212 24.22 91.3367 25.9247 94.371 28.959C97.4053 31.9934 99.11 36.1088 99.11 40.4V40.4Z" stroke="#6EC9EB" stroke-width="1.3" stroke-linecap="round" stroke-linejoin="round"/>
<path d="M99.11 40.4C99.11 43.6001 98.1611 46.7283 96.3832 49.3891C94.6053 52.0499 92.0783 54.1237 89.1218 55.3484C86.1653 56.573 82.9121 56.8934 79.7734 56.2691C76.6348 55.6448 73.7518 54.1038 71.489 51.841C69.2262 49.5782 67.6852 46.6952 67.0609 43.5566C66.4366 40.4179 66.757 37.1647 67.9816 34.2082C69.2063 31.2517 71.2801 28.7247 73.9409 26.9468C76.6017 25.1689 79.7299 24.22 82.93 24.22C87.2212 24.22 91.3367 25.9247 94.371 28.959C97.4053 31.9934 99.11 36.1088 99.11 40.4V40.4Z" stroke="#7DCDEB" stroke-width="1.12" stroke-linecap="round" stroke-linejoin="round"/>
<path d="M99.11 40.4C99.11 43.6001 98.1611 46.7283 96.3832 49.3891C94.6053 52.0499 92.0783 54.1237 89.1218 55.3484C86.1653 56.573 82.9121 56.8934 79.7734 56.2691C76.6348 55.6448 73.7518 54.1038 71.489 51.841C69.2262 49.5782 67.6852 46.6952 67.0609 43.5566C66.4366 40.4179 66.757 37.1647 67.9816 34.2082C69.2063 31.2517 71.2801 28.7247 73.9409 26.9468C76.6017 25.1689 79.7299 24.22 82.93 24.22C87.2212 24.22 91.3367 25.9247 94.371 28.959C97.4053 31.9934 99.11 36.1088 99.11 40.4V40.4Z" stroke="#88CFE8" stroke-width="0.93" stroke-linecap="round" stroke-linejoin="round"/>
<path d="M99.11 40.4C99.11 43.6001 98.1611 46.7283 96.3832 49.3891C94.6053 52.0499 92.0783 54.1237 89.1218 55.3484C86.1653 56.573 82.9121 56.8934 79.7734 56.2691C76.6348 55.6448 73.7518 54.1038 71.489 51.841C69.2262 49.5782 67.6852 46.6952 67.0609 43.5566C66.4366 40.4179 66.757 37.1647 67.9816 34.2082C69.2063 31.2517 71.2801 28.7247 73.9409 26.9468C76.6017 25.1689 79.7299 24.22 82.93 24.22C87.2212 24.22 91.3367 25.9247 94.371 28.959C97.4053 31.9934 99.11 36.1088 99.11 40.4V40.4Z" stroke="#B1DEEF" stroke-width="0.75" stroke-linecap="round" stroke-linejoin="round"/>
<path d="M99.11 40.4C99.11 43.6001 98.1611 46.7283 96.3832 49.3891C94.6053 52.0499 92.0783 54.1237 89.1218 55.3484C86.1653 56.573 82.9121 56.8934 79.7734 56.2691C76.6348 55.6448 73.7518 54.1038 71.489 51.841C69.2262 49.5782 67.6852 46.6952 67.0609 43.5566C66.4366 40.4179 66.757 37.1647 67.9816 34.2082C69.2063 31.2517 71.2801 28.7247 73.9409 26.9468C76.6017 25.1689 79.7299 24.22 82.93 24.22C87.2212 24.22 91.3367 25.9247 94.371 28.959C97.4053 31.9934 99.11 36.1088 99.11 40.4V40.4Z" stroke="#C2E4ED" stroke-width="0.37" stroke-linecap="round" stroke-linejoin="round"/>
<path d="M99.11 40.4C99.11 43.6001 98.1611 46.7283 96.3832 49.3891C94.6053 52.0499 92.0783 54.1237 89.1218 55.3484C86.1653 56.573 82.9121 56.8934 79.7734 56.2691C76.6348 55.6448 73.7518 54.1038 71.489 51.841C69.2262 49.5782 67.6852 46.6952 67.0609 43.5566C66.4366 40.4179 66.757 37.1647 67.9816 34.2082C69.2063 31.2517 71.2801 28.7247 73.9409 26.9468C76.6017 25.1689 79.7299 24.22 82.93 24.22C87.2212 24.22 91.3367 25.9247 94.371 28.959C97.4053 31.9934 99.11 36.1088 99.11 40.4V40.4Z" stroke="#D8EDF4" stroke-width="0.19" stroke-linecap="round" stroke-linejoin="round"/>
<path d="M61.4902 38.52H44.0702C43.1534 38.52 42.4102 39.2632 42.4102 40.18V46.79C42.4102 47.7068 43.1534 48.45 44.0702 48.45H61.4902C62.4069 48.45 63.1502 47.7068 63.1502 46.79V40.18C63.1502 39.2632 62.4069 38.52 61.4902 38.52Z" stroke="#E82C88" stroke-width="1.86" stroke-linecap="round" stroke-linejoin="round"/>
<path d="M61.4902 38.52H44.0702C43.1534 38.52 42.4102 39.2632 42.4102 40.18V46.79C42.4102 47.7068 43.1534 48.45 44.0702 48.45H61.4902C62.4069 48.45 63.1502 47.7068 63.1502 46.79V40.18C63.1502 39.2632 62.4069 38.52 61.4902 38.52Z" stroke="#E44592" stroke-width="1.68" stroke-linecap="round" stroke-linejoin="round"/>
<path d="M61.4902 38.52H44.0702C43.1534 38.52 42.4102 39.2632 42.4102 40.18V46.79C42.4102 47.7068 43.1534 48.45 44.0702 48.45H61.4902C62.4069 48.45 63.1502 47.7068 63.1502 46.79V40.18C63.1502 39.2632 62.4069 38.52 61.4902 38.52Z" stroke="#DE6DA7" stroke-width="1.49" stroke-linecap="round" stroke-linejoin="round"/>
<path d="M61.4902 38.52H44.0702C43.1534 38.52 42.4102 39.2632 42.4102 40.18V46.79C42.4102 47.7068 43.1534 48.45 44.0702 48.45H61.4902C62.4069 48.45 63.1502 47.7068 63.1502 46.79V40.18C63.1502 39.2632 62.4069 38.52 61.4902 38.52Z" stroke="#E77BAF" stroke-width="1.3" stroke-linecap="round" stroke-linejoin="round"/>
<path d="M61.4902 38.52H44.0702C43.1534 38.52 42.4102 39.2632 42.4102 40.18V46.79C42.4102 47.7068 43.1534 48.45 44.0702 48.45H61.4902C62.4069 48.45 63.1502 47.7068 63.1502 46.79V40.18C63.1502 39.2632 62.4069 38.52 61.4902 38.52Z" stroke="#EE96C0" stroke-width="1.12" stroke-linecap="round" stroke-linejoin="round"/>
<path d="M61.4902 38.52H44.0702C43.1534 38.52 42.4102 39.2632 42.4102 40.18V46.79C42.4102 47.7068 43.1534 48.45 44.0702 48.45H61.4902C62.4069 48.45 63.1502 47.7068 63.1502 46.79V40.18C63.1502 39.2632 62.4069 38.52 61.4902 38.52Z" stroke="#F1A5C9" stroke-width="0.93" stroke-linecap="round" stroke-linejoin="round"/>
<path d="M61.4902 38.52H44.0702C43.1534 38.52 42.4102 39.2632 42.4102 40.18V46.79C42.4102 47.7068 43.1534 48.45 44.0702 48.45H61.4902C62.4069 48.45 63.1502 47.7068 63.1502 46.79V40.18C63.1502 39.2632 62.4069 38.52 61.4902 38.52Z" stroke="#F7C3DC" stroke-width="0.75" stroke-linecap="round" stroke-linejoin="round"/>
<path d="M61.4902 38.52H44.0702C43.1534 38.52 42.4102 39.2632 42.4102 40.18V46.79C42.4102 47.7068 43.1534 48.45 44.0702 48.45H61.4902C62.4069 48.45 63.1502 47.7068 63.1502 46.79V40.18C63.1502 39.2632 62.4069 38.52 61.4902 38.52Z" stroke="#F2CCE3" stroke-width="0.37" stroke-linecap="round" stroke-linejoin="round"/>
<path d="M61.4902 38.52H44.0702C43.1534 38.52 42.4102 39.2632 42.4102 40.18V46.79C42.4102 47.7068 43.1534 48.45 44.0702 48.45H61.4902C62.4069 48.45 63.1502 47.7068 63.1502 46.79V40.18C63.1502 39.2632 62.4069 38.52 61.4902 38.52Z" stroke="#F9DEED" stroke-width="0.19" stroke-linecap="round" stroke-linejoin="round"/>
<path d="M46.6099 43.46H51.0299" stroke="#43C0EF" stroke-width="1.86" stroke-linecap="round" stroke-linejoin="round"/>
<path d="M46.6099 43.46H51.0299" stroke="#4BC1ED" stroke-width="1.68" stroke-linecap="round" stroke-linejoin="round"/>
<path d="M46.6099 43.46H51.0299" stroke="#5DC5EC" stroke-width="1.49" stroke-linecap="round" stroke-linejoin="round"/>
<path d="M46.6099 43.46H51.0299" stroke="#6EC9EB" stroke-width="1.3" stroke-linecap="round" stroke-linejoin="round"/>
<path d="M46.6099 43.46H51.0299" stroke="#7DCDEB" stroke-width="1.12" stroke-linecap="round" stroke-linejoin="round"/>
<path d="M46.6099 43.46H51.0299" stroke="#88CFE8" stroke-width="0.93" stroke-linecap="round" stroke-linejoin="round"/>
<path d="M46.6099 43.46H51.0299" stroke="#B1DEEF" stroke-width="0.75" stroke-linecap="round" stroke-linejoin="round"/>
<path d="M46.6099 43.46H51.0299" stroke="#C2E4ED" stroke-width="0.37" stroke-linecap="round" stroke-linejoin="round"/>
<path d="M46.6099 43.46H51.0299" stroke="#D8EDF4" stroke-width="0.19" stroke-linecap="round" stroke-linejoin="round"/>
<path d="M54.5303 43.46H58.9603" stroke="#43C0EF" stroke-width="1.86" stroke-linecap="round" stroke-linejoin="round"/>
<path d="M54.5303 43.46H58.9603" stroke="#4BC1ED" stroke-width="1.68" stroke-linecap="round" stroke-linejoin="round"/>
<path d="M54.5303 43.46H58.9603" stroke="#5DC5EC" stroke-width="1.49" stroke-linecap="round" stroke-linejoin="round"/>
<path d="M54.5303 43.46H58.9603" stroke="#6EC9EB" stroke-width="1.3" stroke-linecap="round" stroke-linejoin="round"/>
<path d="M54.5303 43.46H58.9603" stroke="#7DCDEB" stroke-width="1.12" stroke-linecap="round" stroke-linejoin="round"/>
<path d="M54.5303 43.46H58.9603" stroke="#88CFE8" stroke-width="0.93" stroke-linecap="round" stroke-linejoin="round"/>
<path d="M54.5303 43.46H58.9603" stroke="#B1DEEF" stroke-width="0.75" stroke-linecap="round" stroke-linejoin="round"/>
<path d="M54.5303 43.46H58.9603" stroke="#C2E4ED" stroke-width="0.37" stroke-linecap="round" stroke-linejoin="round"/>
<path d="M54.5303 43.46H58.9603" stroke="#D8EDF4" stroke-width="0.19" stroke-linecap="round" stroke-linejoin="round"/>
<path d="M47.6899 19.79L48.8499 15.87C48.8751 15.6478 48.9869 15.4444 49.1609 15.3041C49.335 15.1637 49.5574 15.0975 49.7799 15.12H55.7799C56.0025 15.0975 56.2249 15.1637 56.3989 15.3041C56.573 15.4444 56.6848 15.6478 56.7099 15.87L57.8699 19.79" stroke="#FFE003" stroke-width="1.86" stroke-linecap="round" stroke-linejoin="round"/>
<path d="M47.6899 19.79L48.8499 15.87C48.8751 15.6478 48.9869 15.4444 49.1609 15.3041C49.335 15.1637 49.5574 15.0975 49.7799 15.12H55.7799C56.0025 15.0975 56.2249 15.1637 56.3989 15.3041C56.573 15.4444 56.6848 15.6478 56.7099 15.87L57.8699 19.79" stroke="#FFE313" stroke-width="1.68" stroke-linecap="round" stroke-linejoin="round"/>
<path d="M47.6899 19.79L48.8499 15.87C48.8751 15.6478 48.9869 15.4444 49.1609 15.3041C49.335 15.1637 49.5574 15.0975 49.7799 15.12H55.7799C56.0025 15.0975 56.2249 15.1637 56.3989 15.3041C56.573 15.4444 56.6848 15.6478 56.7099 15.87L57.8699 19.79" stroke="#FFE835" stroke-width="1.49" stroke-linecap="round" stroke-linejoin="round"/>
<path d="M47.6899 19.79L48.8499 15.87C48.8751 15.6478 48.9869 15.4444 49.1609 15.3041C49.335 15.1637 49.5574 15.0975 49.7799 15.12H55.7799C56.0025 15.0975 56.2249 15.1637 56.3989 15.3041C56.573 15.4444 56.6848 15.6478 56.7099 15.87L57.8699 19.79" stroke="#FFEB51" stroke-width="1.3" stroke-linecap="round" stroke-linejoin="round"/>
<path d="M47.6899 19.79L48.8499 15.87C48.8751 15.6478 48.9869 15.4444 49.1609 15.3041C49.335 15.1637 49.5574 15.0975 49.7799 15.12H55.7799C56.0025 15.0975 56.2249 15.1637 56.3989 15.3041C56.573 15.4444 56.6848 15.6478 56.7099 15.87L57.8699 19.79" stroke="#FFEE6E" stroke-width="1.12" stroke-linecap="round" stroke-linejoin="round"/>
<path d="M47.6899 19.79L48.8499 15.87C48.8751 15.6478 48.9869 15.4444 49.1609 15.3041C49.335 15.1637 49.5574 15.0975 49.7799 15.12H55.7799C56.0025 15.0975 56.2249 15.1637 56.3989 15.3041C56.573 15.4444 56.6848 15.6478 56.7099 15.87L57.8699 19.79" stroke="#FFF18D" stroke-width="0.93" stroke-linecap="round" stroke-linejoin="round"/>
<path d="M47.6899 19.79L48.8499 15.87C48.8751 15.6478 48.9869 15.4444 49.1609 15.3041C49.335 15.1637 49.5574 15.0975 49.7799 15.12H55.7799C56.0025 15.0975 56.2249 15.1637 56.3989 15.3041C56.573 15.4444 56.6848 15.6478 56.7099 15.87L57.8699 19.79" stroke="#FFF5AC" stroke-width="0.75" stroke-linecap="round" stroke-linejoin="round"/>
<path d="M47.6899 19.79L48.8499 15.87C48.8751 15.6478 48.9869 15.4444 49.1609 15.3041C49.335 15.1637 49.5574 15.0975 49.7799 15.12H55.7799C56.0025 15.0975 56.2249 15.1637 56.3989 15.3041C56.573 15.4444 56.6848 15.6478 56.7099 15.87L57.8699 19.79" stroke="#FDF7C7" stroke-width="0.37" stroke-linecap="round" stroke-linejoin="round"/>
<path d="M53.52 13C55.38 9.39 59.81 9.53 63.25 9.4C65.431 9.36356 67.5555 8.70054 69.37 7.49C71.29 6.07 72.59 2.8 70.56 0.910004" stroke="#43C0EF" stroke-width="1.86" stroke-linecap="round" stroke-linejoin="round"/>
<path d="M53.52 13C55.38 9.39 59.81 9.53 63.25 9.4C65.431 9.36356 67.5555 8.70054 69.37 7.49C71.29 6.07 72.59 2.8 70.56 0.910004" stroke="#4BC1ED" stroke-width="1.68" stroke-linecap="round" stroke-linejoin="round"/>
<path d="M53.52 13C55.38 9.39 59.81 9.53 63.25 9.4C65.431 9.36356 67.5555 8.70054 69.37 7.49C71.29 6.07 72.59 2.8 70.56 0.910004" stroke="#5DC5EC" stroke-width="1.49" stroke-linecap="round" stroke-linejoin="round"/>
<path d="M53.52 13C55.38 9.39 59.81 9.53 63.25 9.4C65.431 9.36356 67.5555 8.70054 69.37 7.49C71.29 6.07 72.59 2.8 70.56 0.910004" stroke="#6EC9EB" stroke-width="1.3" stroke-linecap="round" stroke-linejoin="round"/>
<path d="M53.52 13C55.38 9.39 59.81 9.53 63.25 9.4C65.431 9.36356 67.5555 8.70054 69.37 7.49C71.29 6.07 72.59 2.8 70.56 0.910004" stroke="#7DCDEB" stroke-width="1.12" stroke-linecap="round" stroke-linejoin="round"/>
<path d="M53.52 13C55.38 9.39 59.81 9.53 63.25 9.4C65.431 9.36356 67.5555 8.70054 69.37 7.49C71.29 6.07 72.59 2.8 70.56 0.910004" stroke="#88CFE8" stroke-width="0.93" stroke-linecap="round" stroke-linejoin="round"/>
<path d="M53.52 13C55.38 9.39 59.81 9.53 63.25 9.4C65.431 9.36356 67.5555 8.70054 69.37 7.49C71.29 6.07 72.59 2.8 70.56 0.910004" stroke="#B1DEEF" stroke-width="0.75" stroke-linecap="round" stroke-linejoin="round"/>
<path d="M53.52 13C55.38 9.39 59.81 9.53 63.25 9.4C65.431 9.36356 67.5555 8.70054 69.37 7.49C71.29 6.07 72.59 2.8 70.56 0.910004" stroke="#C2E4ED" stroke-width="0.37" stroke-linecap="round" stroke-linejoin="round"/>
<path d="M53.52 13C55.38 9.39 59.81 9.53 63.25 9.4C65.431 9.36356 67.5555 8.70054 69.37 7.49C71.29 6.07 72.59 2.8 70.56 0.910004" stroke="#D8EDF4" stroke-width="0.19" stroke-linecap="round" stroke-linejoin="round"/>
<path d="M56.0601 22.26H71.0901" stroke="#FFE003" stroke-width="1.86" stroke-linecap="round" stroke-linejoin="round"/>
<path d="M56.0601 22.26H71.0901" stroke="#FFE313" stroke-width="1.68" stroke-linecap="round" stroke-linejoin="round"/>
<path d="M56.0601 22.26H71.0901" stroke="#FFE835" stroke-width="1.49" stroke-linecap="round" stroke-linejoin="round"/>
<path d="M56.0601 22.26H71.0901" stroke="#FFEB51" stroke-width="1.3" stroke-linecap="round" stroke-linejoin="round"/>
<path d="M56.0601 22.26H71.0901" stroke="#FFEE6E" stroke-width="1.12" stroke-linecap="round" stroke-linejoin="round"/>
<path d="M56.0601 22.26H71.0901" stroke="#FFF18D" stroke-width="0.93" stroke-linecap="round" stroke-linejoin="round"/>
<path d="M56.0601 22.26H71.0901" stroke="#FFF5AC" stroke-width="0.75" stroke-linecap="round" stroke-linejoin="round"/>
<path d="M56.0601 22.26H71.0901" stroke="#FDF7C7" stroke-width="0.37" stroke-linecap="round" stroke-linejoin="round"/>
</svg>
