<svg width="140" height="140" viewBox="0 0 140 140" fill="none" xmlns="http://www.w3.org/2000/svg">
<rect width="140" height="140" rx="70" fill="#2E016A"/>
<path d="M105.281 48.2797L111.221 52.9072L112.505 45.3271L115.081 52.5529L120.121 46.8839L118.528 54.4103L125.71 52.467L120.452 57.8997L127.5 60.3048L120.245 61.926L124.933 67.9063" stroke="#FFE003" stroke-width="1.86" stroke-linecap="round" stroke-linejoin="round"/>
<path d="M105.281 48.2797L111.221 52.9072L112.505 45.3271L115.081 52.5529L120.121 46.8839L118.528 54.4103L125.71 52.467L120.452 57.8997L127.5 60.3048L120.245 61.926L124.933 67.9063" stroke="#FFE313" stroke-width="1.68" stroke-linecap="round" stroke-linejoin="round"/>
<path d="M105.281 48.2797L111.221 52.9072L112.505 45.3271L115.081 52.5529L120.121 46.8839L118.528 54.4103L125.71 52.467L120.452 57.8997L127.5 60.3048L120.245 61.926L124.933 67.9063" stroke="#FFE835" stroke-width="1.49" stroke-linecap="round" stroke-linejoin="round"/>
<path d="M105.281 48.2797L111.221 52.9072L112.505 45.3271L115.081 52.5529L120.121 46.8839L118.528 54.4103L125.71 52.467L120.452 57.8997L127.5 60.3048L120.245 61.926L124.933 67.9063" stroke="#FFEB51" stroke-width="1.3" stroke-linecap="round" stroke-linejoin="round"/>
<path d="M105.281 48.2797L111.221 52.9072L112.505 45.3271L115.081 52.5529L120.121 46.8839L118.528 54.4103L125.71 52.467L120.452 57.8997L127.5 60.3048L120.245 61.926L124.933 67.9063" stroke="#FFEE6E" stroke-width="1.12" stroke-linecap="round" stroke-linejoin="round"/>
<path d="M105.281 48.2797L111.221 52.9072L112.505 45.3271L115.081 52.5529L120.121 46.8839L118.528 54.4103L125.71 52.467L120.452 57.8997L127.5 60.3048L120.245 61.926L124.933 67.9063" stroke="#FFF18D" stroke-width="0.93" stroke-linecap="round" stroke-linejoin="round"/>
<path d="M105.281 48.2797L111.221 52.9072L112.505 45.3271L115.081 52.5529L120.121 46.8839L118.528 54.4103L125.71 52.467L120.452 57.8997L127.5 60.3048L120.245 61.926L124.933 67.9063" stroke="#FFF5AC" stroke-width="0.75" stroke-linecap="round" stroke-linejoin="round"/>
<path d="M105.281 48.2797L111.221 52.9072L112.505 45.3271L115.081 52.5529L120.121 46.8839L118.528 54.4103L125.71 52.467L120.452 57.8997L127.5 60.3048L120.245 61.926L124.933 67.9063" stroke="#FDF7C7" stroke-width="0.37" stroke-linecap="round" stroke-linejoin="round"/>
<path d="M96.6299 57.7709C96.1953 57.7709 95.7606 57.7709 95.326 57.7709C95.2021 57.7593 95.0774 57.7593 94.9534 57.7709H35.7798C35.6505 57.7722 35.5219 57.7902 35.3969 57.8246C34.9519 57.8246 34.5069 57.7709 34.0619 57.7709C30.4738 57.7699 26.9422 58.6982 23.7874 60.4716C20.6326 62.2449 17.9544 64.8073 15.9956 67.9263C14.0368 71.0452 12.8594 74.6222 12.5702 78.3327C12.2809 82.0432 12.889 85.7699 14.3393 89.175C15.7896 92.58 18.0361 95.5555 20.8753 97.8318C23.7144 100.108 27.0563 101.613 30.598 102.21C34.1396 102.808 37.7689 102.478 41.1567 101.252C44.5446 100.026 47.5838 97.9415 49.9989 95.1883H80.724C83.14 97.9425 86.1805 100.027 89.5698 101.253C92.9592 102.479 96.5899 102.808 100.133 102.209C103.675 101.61 107.018 100.103 109.857 97.8244C112.696 95.5457 114.941 92.5675 116.39 89.1602C117.838 85.7528 118.444 82.0242 118.151 78.3126C117.859 74.601 116.677 71.0239 114.715 67.906C112.752 64.7881 110.07 62.228 106.912 60.4581C103.753 58.6882 100.219 57.7646 96.6299 57.7709V57.7709Z" stroke="#FFE003" stroke-width="1.86" stroke-linecap="round" stroke-linejoin="round"/>
<path d="M96.6299 57.7709C96.1953 57.7709 95.7606 57.7709 95.326 57.7709C95.2021 57.7593 95.0774 57.7593 94.9534 57.7709H35.7798C35.6505 57.7722 35.5219 57.7902 35.3969 57.8246C34.9519 57.8246 34.5069 57.7709 34.0619 57.7709C30.4738 57.7699 26.9422 58.6982 23.7874 60.4716C20.6326 62.2449 17.9544 64.8073 15.9956 67.9263C14.0368 71.0452 12.8594 74.6222 12.5702 78.3327C12.2809 82.0432 12.889 85.7699 14.3393 89.175C15.7896 92.58 18.0361 95.5555 20.8753 97.8318C23.7144 100.108 27.0563 101.613 30.598 102.21C34.1396 102.808 37.7689 102.478 41.1567 101.252C44.5446 100.026 47.5838 97.9415 49.9989 95.1883H80.724C83.14 97.9425 86.1805 100.027 89.5698 101.253C92.9592 102.479 96.5899 102.808 100.133 102.209C103.675 101.61 107.018 100.103 109.857 97.8244C112.696 95.5457 114.941 92.5675 116.39 89.1602C117.838 85.7528 118.444 82.0242 118.151 78.3126C117.859 74.601 116.677 71.0239 114.715 67.906C112.752 64.7881 110.07 62.228 106.912 60.4581C103.753 58.6882 100.219 57.7646 96.6299 57.7709V57.7709Z" stroke="#FFE313" stroke-width="1.68" stroke-linecap="round" stroke-linejoin="round"/>
<path d="M96.6299 57.7709C96.1953 57.7709 95.7606 57.7709 95.326 57.7709C95.2021 57.7593 95.0774 57.7593 94.9534 57.7709H35.7798C35.6505 57.7722 35.5219 57.7902 35.3969 57.8246C34.9519 57.8246 34.5069 57.7709 34.0619 57.7709C30.4738 57.7699 26.9422 58.6982 23.7874 60.4716C20.6326 62.2449 17.9544 64.8073 15.9956 67.9263C14.0368 71.0452 12.8594 74.6222 12.5702 78.3327C12.2809 82.0432 12.889 85.7699 14.3393 89.175C15.7896 92.58 18.0361 95.5555 20.8753 97.8318C23.7144 100.108 27.0563 101.613 30.598 102.21C34.1396 102.808 37.7689 102.478 41.1567 101.252C44.5446 100.026 47.5838 97.9415 49.9989 95.1883H80.724C83.14 97.9425 86.1805 100.027 89.5698 101.253C92.9592 102.479 96.5899 102.808 100.133 102.209C103.675 101.61 107.018 100.103 109.857 97.8244C112.696 95.5457 114.941 92.5675 116.39 89.1602C117.838 85.7528 118.444 82.0242 118.151 78.3126C117.859 74.601 116.677 71.0239 114.715 67.906C112.752 64.7881 110.07 62.228 106.912 60.4581C103.753 58.6882 100.219 57.7646 96.6299 57.7709V57.7709Z" stroke="#FFE835" stroke-width="1.49" stroke-linecap="round" stroke-linejoin="round"/>
<path d="M96.6299 57.7709C96.1953 57.7709 95.7606 57.7709 95.326 57.7709C95.2021 57.7593 95.0774 57.7593 94.9534 57.7709H35.7798C35.6505 57.7722 35.5219 57.7902 35.3969 57.8246C34.9519 57.8246 34.5069 57.7709 34.0619 57.7709C30.4738 57.7699 26.9422 58.6982 23.7874 60.4716C20.6326 62.2449 17.9544 64.8073 15.9956 67.9263C14.0368 71.0452 12.8594 74.6222 12.5702 78.3327C12.2809 82.0432 12.889 85.7699 14.3393 89.175C15.7896 92.58 18.0361 95.5555 20.8753 97.8318C23.7144 100.108 27.0563 101.613 30.598 102.21C34.1396 102.808 37.7689 102.478 41.1567 101.252C44.5446 100.026 47.5838 97.9415 49.9989 95.1883H80.724C83.14 97.9425 86.1805 100.027 89.5698 101.253C92.9592 102.479 96.5899 102.808 100.133 102.209C103.675 101.61 107.018 100.103 109.857 97.8244C112.696 95.5457 114.941 92.5675 116.39 89.1602C117.838 85.7528 118.444 82.0242 118.151 78.3126C117.859 74.601 116.677 71.0239 114.715 67.906C112.752 64.7881 110.07 62.228 106.912 60.4581C103.753 58.6882 100.219 57.7646 96.6299 57.7709V57.7709Z" stroke="#FFEB51" stroke-width="1.3" stroke-linecap="round" stroke-linejoin="round"/>
<path d="M96.6299 57.7709C96.1953 57.7709 95.7606 57.7709 95.326 57.7709C95.2021 57.7593 95.0774 57.7593 94.9534 57.7709H35.7798C35.6505 57.7722 35.5219 57.7902 35.3969 57.8246C34.9519 57.8246 34.5069 57.7709 34.0619 57.7709C30.4738 57.7699 26.9422 58.6982 23.7874 60.4716C20.6326 62.2449 17.9544 64.8073 15.9956 67.9263C14.0368 71.0452 12.8594 74.6222 12.5702 78.3327C12.2809 82.0432 12.889 85.7699 14.3393 89.175C15.7896 92.58 18.0361 95.5555 20.8753 97.8318C23.7144 100.108 27.0563 101.613 30.598 102.21C34.1396 102.808 37.7689 102.478 41.1567 101.252C44.5446 100.026 47.5838 97.9415 49.9989 95.1883H80.724C83.14 97.9425 86.1805 100.027 89.5698 101.253C92.9592 102.479 96.5899 102.808 100.133 102.209C103.675 101.61 107.018 100.103 109.857 97.8244C112.696 95.5457 114.941 92.5675 116.39 89.1602C117.838 85.7528 118.444 82.0242 118.151 78.3126C117.859 74.601 116.677 71.0239 114.715 67.906C112.752 64.7881 110.07 62.228 106.912 60.4581C103.753 58.6882 100.219 57.7646 96.6299 57.7709V57.7709Z" stroke="#FFEE6E" stroke-width="1.12" stroke-linecap="round" stroke-linejoin="round"/>
<path d="M96.6299 57.7709C96.1953 57.7709 95.7606 57.7709 95.326 57.7709C95.2021 57.7593 95.0774 57.7593 94.9534 57.7709H35.7798C35.6505 57.7722 35.5219 57.7902 35.3969 57.8246C34.9519 57.8246 34.5069 57.7709 34.0619 57.7709C30.4738 57.7699 26.9422 58.6982 23.7874 60.4716C20.6326 62.2449 17.9544 64.8073 15.9956 67.9263C14.0368 71.0452 12.8594 74.6222 12.5702 78.3327C12.2809 82.0432 12.889 85.7699 14.3393 89.175C15.7896 92.58 18.0361 95.5555 20.8753 97.8318C23.7144 100.108 27.0563 101.613 30.598 102.21C34.1396 102.808 37.7689 102.478 41.1567 101.252C44.5446 100.026 47.5838 97.9415 49.9989 95.1883H80.724C83.14 97.9425 86.1805 100.027 89.5698 101.253C92.9592 102.479 96.5899 102.808 100.133 102.209C103.675 101.61 107.018 100.103 109.857 97.8244C112.696 95.5457 114.941 92.5675 116.39 89.1602C117.838 85.7528 118.444 82.0242 118.151 78.3126C117.859 74.601 116.677 71.0239 114.715 67.906C112.752 64.7881 110.07 62.228 106.912 60.4581C103.753 58.6882 100.219 57.7646 96.6299 57.7709V57.7709Z" stroke="#FFF18D" stroke-width="0.93" stroke-linecap="round" stroke-linejoin="round"/>
<path d="M96.6299 57.7709C96.1953 57.7709 95.7606 57.7709 95.326 57.7709C95.2021 57.7593 95.0774 57.7593 94.9534 57.7709H35.7798C35.6505 57.7722 35.5219 57.7902 35.3969 57.8246C34.9519 57.8246 34.5069 57.7709 34.0619 57.7709C30.4738 57.7699 26.9422 58.6982 23.7874 60.4716C20.6326 62.2449 17.9544 64.8073 15.9956 67.9263C14.0368 71.0452 12.8594 74.6222 12.5702 78.3327C12.2809 82.0432 12.889 85.7699 14.3393 89.175C15.7896 92.58 18.0361 95.5555 20.8753 97.8318C23.7144 100.108 27.0563 101.613 30.598 102.21C34.1396 102.808 37.7689 102.478 41.1567 101.252C44.5446 100.026 47.5838 97.9415 49.9989 95.1883H80.724C83.14 97.9425 86.1805 100.027 89.5698 101.253C92.9592 102.479 96.5899 102.808 100.133 102.209C103.675 101.61 107.018 100.103 109.857 97.8244C112.696 95.5457 114.941 92.5675 116.39 89.1602C117.838 85.7528 118.444 82.0242 118.151 78.3126C117.859 74.601 116.677 71.0239 114.715 67.906C112.752 64.7881 110.07 62.228 106.912 60.4581C103.753 58.6882 100.219 57.7646 96.6299 57.7709V57.7709Z" stroke="#FFF5AC" stroke-width="0.75" stroke-linecap="round" stroke-linejoin="round"/>
<path d="M96.6299 57.7709C96.1953 57.7709 95.7606 57.7709 95.326 57.7709C95.2021 57.7593 95.0774 57.7593 94.9534 57.7709H35.7798C35.6505 57.7722 35.5219 57.7902 35.3969 57.8246C34.9519 57.8246 34.5069 57.7709 34.0619 57.7709C30.4738 57.7699 26.9422 58.6982 23.7874 60.4716C20.6326 62.2449 17.9544 64.8073 15.9956 67.9263C14.0368 71.0452 12.8594 74.6222 12.5702 78.3327C12.2809 82.0432 12.889 85.7699 14.3393 89.175C15.7896 92.58 18.0361 95.5555 20.8753 97.8318C23.7144 100.108 27.0563 101.613 30.598 102.21C34.1396 102.808 37.7689 102.478 41.1567 101.252C44.5446 100.026 47.5838 97.9415 49.9989 95.1883H80.724C83.14 97.9425 86.1805 100.027 89.5698 101.253C92.9592 102.479 96.5899 102.808 100.133 102.209C103.675 101.61 107.018 100.103 109.857 97.8244C112.696 95.5457 114.941 92.5675 116.39 89.1602C117.838 85.7528 118.444 82.0242 118.151 78.3126C117.859 74.601 116.677 71.0239 114.715 67.906C112.752 64.7881 110.07 62.228 106.912 60.4581C103.753 58.6882 100.219 57.7646 96.6299 57.7709V57.7709Z" stroke="#FDF7C7" stroke-width="0.37" stroke-linecap="round" stroke-linejoin="round"/>
<path d="M41.4196 76.1521H36.9076V71.4709C36.9076 70.8748 36.6801 70.3029 36.2748 69.8804C35.8694 69.4579 35.3193 69.2191 34.7448 69.2162H31.8471C31.2725 69.2191 30.7224 69.4579 30.3171 69.8804C29.9118 70.3029 29.6843 70.8748 29.6843 71.4709V76.1521H25.224C24.9351 76.145 24.6478 76.1977 24.3788 76.3071C24.1098 76.4165 23.8646 76.5805 23.6574 76.7895C23.4502 76.9984 23.2853 77.2481 23.1723 77.524C23.0592 77.7999 23.0003 78.0963 22.999 78.3961V81.4024C23.0003 81.7021 23.0592 81.9986 23.1723 82.2745C23.2853 82.5503 23.4502 82.8001 23.6574 83.009C23.8646 83.2179 24.1098 83.3819 24.3788 83.4914C24.6478 83.6008 24.9351 83.6535 25.224 83.6463H29.736V88.3275C29.736 88.9237 29.9635 89.4955 30.3689 89.9181C30.7742 90.3406 31.3243 90.5794 31.8989 90.5823H34.7965C35.3711 90.5794 35.9212 90.3406 36.3265 89.9181C36.7318 89.4955 36.9594 88.9237 36.9594 88.3275V83.6463H41.4714C42.046 83.6464 42.5972 83.4103 43.0044 82.9898C43.4117 82.5692 43.6419 81.9985 43.6446 81.4024V78.3961C43.6433 78.0963 43.5844 77.7999 43.4714 77.524C43.3583 77.2481 43.1934 76.9984 42.9862 76.7895C42.779 76.5805 42.5338 76.4165 42.2648 76.3071C41.9958 76.1977 41.7085 76.145 41.4196 76.1521V76.1521Z" stroke="#E82C88" stroke-width="1.86" stroke-linecap="round" stroke-linejoin="round"/>
<path d="M41.4196 76.1521H36.9076V71.4709C36.9076 70.8748 36.6801 70.3029 36.2748 69.8804C35.8694 69.4579 35.3193 69.2191 34.7448 69.2162H31.8471C31.2725 69.2191 30.7224 69.4579 30.3171 69.8804C29.9118 70.3029 29.6843 70.8748 29.6843 71.4709V76.1521H25.224C24.9351 76.145 24.6478 76.1977 24.3788 76.3071C24.1098 76.4165 23.8646 76.5805 23.6574 76.7895C23.4502 76.9984 23.2853 77.2481 23.1723 77.524C23.0592 77.7999 23.0003 78.0963 22.999 78.3961V81.4024C23.0003 81.7021 23.0592 81.9986 23.1723 82.2745C23.2853 82.5503 23.4502 82.8001 23.6574 83.009C23.8646 83.2179 24.1098 83.3819 24.3788 83.4914C24.6478 83.6008 24.9351 83.6535 25.224 83.6463H29.736V88.3275C29.736 88.9237 29.9635 89.4955 30.3689 89.9181C30.7742 90.3406 31.3243 90.5794 31.8989 90.5823H34.7965C35.3711 90.5794 35.9212 90.3406 36.3265 89.9181C36.7318 89.4955 36.9594 88.9237 36.9594 88.3275V83.6463H41.4714C42.046 83.6464 42.5972 83.4103 43.0044 82.9898C43.4117 82.5692 43.6419 81.9985 43.6446 81.4024V78.3961C43.6433 78.0963 43.5844 77.7999 43.4714 77.524C43.3583 77.2481 43.1934 76.9984 42.9862 76.7895C42.779 76.5805 42.5338 76.4165 42.2648 76.3071C41.9958 76.1977 41.7085 76.145 41.4196 76.1521V76.1521Z" stroke="#E44592" stroke-width="1.68" stroke-linecap="round" stroke-linejoin="round"/>
<path d="M41.4196 76.1521H36.9076V71.4709C36.9076 70.8748 36.6801 70.3029 36.2748 69.8804C35.8694 69.4579 35.3193 69.2191 34.7448 69.2162H31.8471C31.2725 69.2191 30.7224 69.4579 30.3171 69.8804C29.9118 70.3029 29.6843 70.8748 29.6843 71.4709V76.1521H25.224C24.9351 76.145 24.6478 76.1977 24.3788 76.3071C24.1098 76.4165 23.8646 76.5805 23.6574 76.7895C23.4502 76.9984 23.2853 77.2481 23.1723 77.524C23.0592 77.7999 23.0003 78.0963 22.999 78.3961V81.4024C23.0003 81.7021 23.0592 81.9986 23.1723 82.2745C23.2853 82.5503 23.4502 82.8001 23.6574 83.009C23.8646 83.2179 24.1098 83.3819 24.3788 83.4914C24.6478 83.6008 24.9351 83.6535 25.224 83.6463H29.736V88.3275C29.736 88.9237 29.9635 89.4955 30.3689 89.9181C30.7742 90.3406 31.3243 90.5794 31.8989 90.5823H34.7965C35.3711 90.5794 35.9212 90.3406 36.3265 89.9181C36.7318 89.4955 36.9594 88.9237 36.9594 88.3275V83.6463H41.4714C42.046 83.6464 42.5972 83.4103 43.0044 82.9898C43.4117 82.5692 43.6419 81.9985 43.6446 81.4024V78.3961C43.6433 78.0963 43.5844 77.7999 43.4714 77.524C43.3583 77.2481 43.1934 76.9984 42.9862 76.7895C42.779 76.5805 42.5338 76.4165 42.2648 76.3071C41.9958 76.1977 41.7085 76.145 41.4196 76.1521V76.1521Z" stroke="#DE6DA7" stroke-width="1.49" stroke-linecap="round" stroke-linejoin="round"/>
<path d="M41.4196 76.1521H36.9076V71.4709C36.9076 70.8748 36.6801 70.3029 36.2748 69.8804C35.8694 69.4579 35.3193 69.2191 34.7448 69.2162H31.8471C31.2725 69.2191 30.7224 69.4579 30.3171 69.8804C29.9118 70.3029 29.6843 70.8748 29.6843 71.4709V76.1521H25.224C24.9351 76.145 24.6478 76.1977 24.3788 76.3071C24.1098 76.4165 23.8646 76.5805 23.6574 76.7895C23.4502 76.9984 23.2853 77.2481 23.1723 77.524C23.0592 77.7999 23.0003 78.0963 22.999 78.3961V81.4024C23.0003 81.7021 23.0592 81.9986 23.1723 82.2745C23.2853 82.5503 23.4502 82.8001 23.6574 83.009C23.8646 83.2179 24.1098 83.3819 24.3788 83.4914C24.6478 83.6008 24.9351 83.6535 25.224 83.6463H29.736V88.3275C29.736 88.9237 29.9635 89.4955 30.3689 89.9181C30.7742 90.3406 31.3243 90.5794 31.8989 90.5823H34.7965C35.3711 90.5794 35.9212 90.3406 36.3265 89.9181C36.7318 89.4955 36.9594 88.9237 36.9594 88.3275V83.6463H41.4714C42.046 83.6464 42.5972 83.4103 43.0044 82.9898C43.4117 82.5692 43.6419 81.9985 43.6446 81.4024V78.3961C43.6433 78.0963 43.5844 77.7999 43.4714 77.524C43.3583 77.2481 43.1934 76.9984 42.9862 76.7895C42.779 76.5805 42.5338 76.4165 42.2648 76.3071C41.9958 76.1977 41.7085 76.145 41.4196 76.1521V76.1521Z" stroke="#E77BAF" stroke-width="1.3" stroke-linecap="round" stroke-linejoin="round"/>
<path d="M41.4196 76.1521H36.9076V71.4709C36.9076 70.8748 36.6801 70.3029 36.2748 69.8804C35.8694 69.4579 35.3193 69.2191 34.7448 69.2162H31.8471C31.2725 69.2191 30.7224 69.4579 30.3171 69.8804C29.9118 70.3029 29.6843 70.8748 29.6843 71.4709V76.1521H25.224C24.9351 76.145 24.6478 76.1977 24.3788 76.3071C24.1098 76.4165 23.8646 76.5805 23.6574 76.7895C23.4502 76.9984 23.2853 77.2481 23.1723 77.524C23.0592 77.7999 23.0003 78.0963 22.999 78.3961V81.4024C23.0003 81.7021 23.0592 81.9986 23.1723 82.2745C23.2853 82.5503 23.4502 82.8001 23.6574 83.009C23.8646 83.2179 24.1098 83.3819 24.3788 83.4914C24.6478 83.6008 24.9351 83.6535 25.224 83.6463H29.736V88.3275C29.736 88.9237 29.9635 89.4955 30.3689 89.9181C30.7742 90.3406 31.3243 90.5794 31.8989 90.5823H34.7965C35.3711 90.5794 35.9212 90.3406 36.3265 89.9181C36.7318 89.4955 36.9594 88.9237 36.9594 88.3275V83.6463H41.4714C42.046 83.6464 42.5972 83.4103 43.0044 82.9898C43.4117 82.5692 43.6419 81.9985 43.6446 81.4024V78.3961C43.6433 78.0963 43.5844 77.7999 43.4714 77.524C43.3583 77.2481 43.1934 76.9984 42.9862 76.7895C42.779 76.5805 42.5338 76.4165 42.2648 76.3071C41.9958 76.1977 41.7085 76.145 41.4196 76.1521V76.1521Z" stroke="#EE96C0" stroke-width="1.12" stroke-linecap="round" stroke-linejoin="round"/>
<path d="M41.4196 76.1521H36.9076V71.4709C36.9076 70.8748 36.6801 70.3029 36.2748 69.8804C35.8694 69.4579 35.3193 69.2191 34.7448 69.2162H31.8471C31.2725 69.2191 30.7224 69.4579 30.3171 69.8804C29.9118 70.3029 29.6843 70.8748 29.6843 71.4709V76.1521H25.224C24.9351 76.145 24.6478 76.1977 24.3788 76.3071C24.1098 76.4165 23.8646 76.5805 23.6574 76.7895C23.4502 76.9984 23.2853 77.2481 23.1723 77.524C23.0592 77.7999 23.0003 78.0963 22.999 78.3961V81.4024C23.0003 81.7021 23.0592 81.9986 23.1723 82.2745C23.2853 82.5503 23.4502 82.8001 23.6574 83.009C23.8646 83.2179 24.1098 83.3819 24.3788 83.4914C24.6478 83.6008 24.9351 83.6535 25.224 83.6463H29.736V88.3275C29.736 88.9237 29.9635 89.4955 30.3689 89.9181C30.7742 90.3406 31.3243 90.5794 31.8989 90.5823H34.7965C35.3711 90.5794 35.9212 90.3406 36.3265 89.9181C36.7318 89.4955 36.9594 88.9237 36.9594 88.3275V83.6463H41.4714C42.046 83.6464 42.5972 83.4103 43.0044 82.9898C43.4117 82.5692 43.6419 81.9985 43.6446 81.4024V78.3961C43.6433 78.0963 43.5844 77.7999 43.4714 77.524C43.3583 77.2481 43.1934 76.9984 42.9862 76.7895C42.779 76.5805 42.5338 76.4165 42.2648 76.3071C41.9958 76.1977 41.7085 76.145 41.4196 76.1521V76.1521Z" stroke="#F1A5C9" stroke-width="0.93" stroke-linecap="round" stroke-linejoin="round"/>
<path d="M41.4196 76.1521H36.9076V71.4709C36.9076 70.8748 36.6801 70.3029 36.2748 69.8804C35.8694 69.4579 35.3193 69.2191 34.7448 69.2162H31.8471C31.2725 69.2191 30.7224 69.4579 30.3171 69.8804C29.9118 70.3029 29.6843 70.8748 29.6843 71.4709V76.1521H25.224C24.9351 76.145 24.6478 76.1977 24.3788 76.3071C24.1098 76.4165 23.8646 76.5805 23.6574 76.7895C23.4502 76.9984 23.2853 77.2481 23.1723 77.524C23.0592 77.7999 23.0003 78.0963 22.999 78.3961V81.4024C23.0003 81.7021 23.0592 81.9986 23.1723 82.2745C23.2853 82.5503 23.4502 82.8001 23.6574 83.009C23.8646 83.2179 24.1098 83.3819 24.3788 83.4914C24.6478 83.6008 24.9351 83.6535 25.224 83.6463H29.736V88.3275C29.736 88.9237 29.9635 89.4955 30.3689 89.9181C30.7742 90.3406 31.3243 90.5794 31.8989 90.5823H34.7965C35.3711 90.5794 35.9212 90.3406 36.3265 89.9181C36.7318 89.4955 36.9594 88.9237 36.9594 88.3275V83.6463H41.4714C42.046 83.6464 42.5972 83.4103 43.0044 82.9898C43.4117 82.5692 43.6419 81.9985 43.6446 81.4024V78.3961C43.6433 78.0963 43.5844 77.7999 43.4714 77.524C43.3583 77.2481 43.1934 76.9984 42.9862 76.7895C42.779 76.5805 42.5338 76.4165 42.2648 76.3071C41.9958 76.1977 41.7085 76.145 41.4196 76.1521V76.1521Z" stroke="#F7C3DC" stroke-width="0.75" stroke-linecap="round" stroke-linejoin="round"/>
<path d="M41.4196 76.1521H36.9076V71.4709C36.9076 70.8748 36.6801 70.3029 36.2748 69.8804C35.8694 69.4579 35.3193 69.2191 34.7448 69.2162H31.8471C31.2725 69.2191 30.7224 69.4579 30.3171 69.8804C29.9118 70.3029 29.6843 70.8748 29.6843 71.4709V76.1521H25.224C24.9351 76.145 24.6478 76.1977 24.3788 76.3071C24.1098 76.4165 23.8646 76.5805 23.6574 76.7895C23.4502 76.9984 23.2853 77.2481 23.1723 77.524C23.0592 77.7999 23.0003 78.0963 22.999 78.3961V81.4024C23.0003 81.7021 23.0592 81.9986 23.1723 82.2745C23.2853 82.5503 23.4502 82.8001 23.6574 83.009C23.8646 83.2179 24.1098 83.3819 24.3788 83.4914C24.6478 83.6008 24.9351 83.6535 25.224 83.6463H29.736V88.3275C29.736 88.9237 29.9635 89.4955 30.3689 89.9181C30.7742 90.3406 31.3243 90.5794 31.8989 90.5823H34.7965C35.3711 90.5794 35.9212 90.3406 36.3265 89.9181C36.7318 89.4955 36.9594 88.9237 36.9594 88.3275V83.6463H41.4714C42.046 83.6464 42.5972 83.4103 43.0044 82.9898C43.4117 82.5692 43.6419 81.9985 43.6446 81.4024V78.3961C43.6433 78.0963 43.5844 77.7999 43.4714 77.524C43.3583 77.2481 43.1934 76.9984 42.9862 76.7895C42.779 76.5805 42.5338 76.4165 42.2648 76.3071C41.9958 76.1977 41.7085 76.145 41.4196 76.1521V76.1521Z" stroke="#F2CCE3" stroke-width="0.37" stroke-linecap="round" stroke-linejoin="round"/>
<path d="M41.4196 76.1521H36.9076V71.4709C36.9076 70.8748 36.6801 70.3029 36.2748 69.8804C35.8694 69.4579 35.3193 69.2191 34.7448 69.2162H31.8471C31.2725 69.2191 30.7224 69.4579 30.3171 69.8804C29.9118 70.3029 29.6843 70.8748 29.6843 71.4709V76.1521H25.224C24.9351 76.145 24.6478 76.1977 24.3788 76.3071C24.1098 76.4165 23.8646 76.5805 23.6574 76.7895C23.4502 76.9984 23.2853 77.2481 23.1723 77.524C23.0592 77.7999 23.0003 78.0963 22.999 78.3961V81.4024C23.0003 81.7021 23.0592 81.9986 23.1723 82.2745C23.2853 82.5503 23.4502 82.8001 23.6574 83.009C23.8646 83.2179 24.1098 83.3819 24.3788 83.4914C24.6478 83.6008 24.9351 83.6535 25.224 83.6463H29.736V88.3275C29.736 88.9237 29.9635 89.4955 30.3689 89.9181C30.7742 90.3406 31.3243 90.5794 31.8989 90.5823H34.7965C35.3711 90.5794 35.9212 90.3406 36.3265 89.9181C36.7318 89.4955 36.9594 88.9237 36.9594 88.3275V83.6463H41.4714C42.046 83.6464 42.5972 83.4103 43.0044 82.9898C43.4117 82.5692 43.6419 81.9985 43.6446 81.4024V78.3961C43.6433 78.0963 43.5844 77.7999 43.4714 77.524C43.3583 77.2481 43.1934 76.9984 42.9862 76.7895C42.779 76.5805 42.5338 76.4165 42.2648 76.3071C41.9958 76.1977 41.7085 76.145 41.4196 76.1521V76.1521Z" stroke="#F9DEED" stroke-width="0.19" stroke-linecap="round" stroke-linejoin="round"/>
<path d="M46.5011 69.2162C49.0261 72.5774 50.2714 76.7847 49.9998 81.0369C49.7282 85.2891 47.9587 89.2891 45.0282 92.2752C42.0978 95.2613 38.2111 97.0249 34.1083 97.23C30.0056 97.4352 25.9734 96.0677 22.7797 93.3878C19.586 90.708 17.4539 86.9031 16.7893 82.6977C16.1248 78.4923 16.9743 74.1803 19.1761 70.5827C21.3778 66.9851 24.778 64.3534 28.7291 63.1887C32.6803 62.024 36.9063 62.4076 40.6023 64.2666" stroke="#43C0EF" stroke-width="1.86" stroke-linecap="round" stroke-linejoin="round"/>
<path d="M46.5011 69.2162C49.0261 72.5774 50.2714 76.7847 49.9998 81.0369C49.7282 85.2891 47.9587 89.2891 45.0282 92.2752C42.0978 95.2613 38.2111 97.0249 34.1083 97.23C30.0056 97.4352 25.9734 96.0677 22.7797 93.3878C19.586 90.708 17.4539 86.9031 16.7893 82.6977C16.1248 78.4923 16.9743 74.1803 19.1761 70.5827C21.3778 66.9851 24.778 64.3534 28.7291 63.1887C32.6803 62.024 36.9063 62.4076 40.6023 64.2666" stroke="#4BC1ED" stroke-width="1.68" stroke-linecap="round" stroke-linejoin="round"/>
<path d="M46.5011 69.2162C49.0261 72.5774 50.2714 76.7847 49.9998 81.0369C49.7282 85.2891 47.9587 89.2891 45.0282 92.2752C42.0978 95.2613 38.2111 97.0249 34.1083 97.23C30.0056 97.4352 25.9734 96.0677 22.7797 93.3878C19.586 90.708 17.4539 86.9031 16.7893 82.6977C16.1248 78.4923 16.9743 74.1803 19.1761 70.5827C21.3778 66.9851 24.778 64.3534 28.7291 63.1887C32.6803 62.024 36.9063 62.4076 40.6023 64.2666" stroke="#5DC5EC" stroke-width="1.49" stroke-linecap="round" stroke-linejoin="round"/>
<path d="M46.5011 69.2162C49.0261 72.5774 50.2714 76.7847 49.9998 81.0369C49.7282 85.2891 47.9587 89.2891 45.0282 92.2752C42.0978 95.2613 38.2111 97.0249 34.1083 97.23C30.0056 97.4352 25.9734 96.0677 22.7797 93.3878C19.586 90.708 17.4539 86.9031 16.7893 82.6977C16.1248 78.4923 16.9743 74.1803 19.1761 70.5827C21.3778 66.9851 24.778 64.3534 28.7291 63.1887C32.6803 62.024 36.9063 62.4076 40.6023 64.2666" stroke="#6EC9EB" stroke-width="1.3" stroke-linecap="round" stroke-linejoin="round"/>
<path d="M46.5011 69.2162C49.0261 72.5774 50.2714 76.7847 49.9998 81.0369C49.7282 85.2891 47.9587 89.2891 45.0282 92.2752C42.0978 95.2613 38.2111 97.0249 34.1083 97.23C30.0056 97.4352 25.9734 96.0677 22.7797 93.3878C19.586 90.708 17.4539 86.9031 16.7893 82.6977C16.1248 78.4923 16.9743 74.1803 19.1761 70.5827C21.3778 66.9851 24.778 64.3534 28.7291 63.1887C32.6803 62.024 36.9063 62.4076 40.6023 64.2666" stroke="#7DCDEB" stroke-width="1.12" stroke-linecap="round" stroke-linejoin="round"/>
<path d="M46.5011 69.2162C49.0261 72.5774 50.2714 76.7847 49.9998 81.0369C49.7282 85.2891 47.9587 89.2891 45.0282 92.2752C42.0978 95.2613 38.2111 97.0249 34.1083 97.23C30.0056 97.4352 25.9734 96.0677 22.7797 93.3878C19.586 90.708 17.4539 86.9031 16.7893 82.6977C16.1248 78.4923 16.9743 74.1803 19.1761 70.5827C21.3778 66.9851 24.778 64.3534 28.7291 63.1887C32.6803 62.024 36.9063 62.4076 40.6023 64.2666" stroke="#88CFE8" stroke-width="0.93" stroke-linecap="round" stroke-linejoin="round"/>
<path d="M46.5011 69.2162C49.0261 72.5774 50.2714 76.7847 49.9998 81.0369C49.7282 85.2891 47.9587 89.2891 45.0282 92.2752C42.0978 95.2613 38.2111 97.0249 34.1083 97.23C30.0056 97.4352 25.9734 96.0677 22.7797 93.3878C19.586 90.708 17.4539 86.9031 16.7893 82.6977C16.1248 78.4923 16.9743 74.1803 19.1761 70.5827C21.3778 66.9851 24.778 64.3534 28.7291 63.1887C32.6803 62.024 36.9063 62.4076 40.6023 64.2666" stroke="#B1DEEF" stroke-width="0.75" stroke-linecap="round" stroke-linejoin="round"/>
<path d="M46.5011 69.2162C49.0261 72.5774 50.2714 76.7847 49.9998 81.0369C49.7282 85.2891 47.9587 89.2891 45.0282 92.2752C42.0978 95.2613 38.2111 97.0249 34.1083 97.23C30.0056 97.4352 25.9734 96.0677 22.7797 93.3878C19.586 90.708 17.4539 86.9031 16.7893 82.6977C16.1248 78.4923 16.9743 74.1803 19.1761 70.5827C21.3778 66.9851 24.778 64.3534 28.7291 63.1887C32.6803 62.024 36.9063 62.4076 40.6023 64.2666" stroke="#C2E4ED" stroke-width="0.37" stroke-linecap="round" stroke-linejoin="round"/>
<path d="M46.5011 69.2162C49.0261 72.5774 50.2714 76.7847 49.9998 81.0369C49.7282 85.2891 47.9587 89.2891 45.0282 92.2752C42.0978 95.2613 38.2111 97.0249 34.1083 97.23C30.0056 97.4352 25.9734 96.0677 22.7797 93.3878C19.586 90.708 17.4539 86.9031 16.7893 82.6977C16.1248 78.4923 16.9743 74.1803 19.1761 70.5827C21.3778 66.9851 24.778 64.3534 28.7291 63.1887C32.6803 62.024 36.9063 62.4076 40.6023 64.2666" stroke="#D8EDF4" stroke-width="0.19" stroke-linecap="round" stroke-linejoin="round"/>
<path d="M99.7347 71.6105C99.7367 72.2635 99.551 72.9022 99.2015 73.4452C98.852 73.9882 98.3544 74.4109 97.7723 74.6592C97.1902 74.9075 96.55 74.9702 95.9334 74.8394C95.3168 74.7085 94.7518 74.39 94.3104 73.9245C93.8691 73.459 93.5715 72.8676 93.4556 72.2258C93.3396 71.584 93.4107 70.9209 93.6596 70.3212C93.9085 69.7214 94.324 69.2123 94.8531 68.8586C95.3822 68.505 96.0009 68.323 96.6301 68.3358C97.0422 68.3357 97.4502 68.4208 97.8303 68.586C98.2104 68.7512 98.5549 68.9933 98.8439 69.2981C99.1329 69.6029 99.3605 69.9644 99.5134 70.3614C99.6664 70.7584 99.7416 71.183 99.7347 71.6105Z" stroke="#FFE003" stroke-width="1.86" stroke-linecap="round" stroke-linejoin="round"/>
<path d="M99.7347 71.6105C99.7367 72.2635 99.551 72.9022 99.2015 73.4452C98.852 73.9882 98.3544 74.4109 97.7723 74.6592C97.1902 74.9075 96.55 74.9702 95.9334 74.8394C95.3168 74.7085 94.7518 74.39 94.3104 73.9245C93.8691 73.459 93.5715 72.8676 93.4556 72.2258C93.3396 71.584 93.4107 70.9209 93.6596 70.3212C93.9085 69.7214 94.324 69.2123 94.8531 68.8586C95.3822 68.505 96.0009 68.323 96.6301 68.3358C97.0422 68.3357 97.4502 68.4208 97.8303 68.586C98.2104 68.7512 98.5549 68.9933 98.8439 69.2981C99.1329 69.6029 99.3605 69.9644 99.5134 70.3614C99.6664 70.7584 99.7416 71.183 99.7347 71.6105Z" stroke="#FFE313" stroke-width="1.68" stroke-linecap="round" stroke-linejoin="round"/>
<path d="M99.7347 71.6105C99.7367 72.2635 99.551 72.9022 99.2015 73.4452C98.852 73.9882 98.3544 74.4109 97.7723 74.6592C97.1902 74.9075 96.55 74.9702 95.9334 74.8394C95.3168 74.7085 94.7518 74.39 94.3104 73.9245C93.8691 73.459 93.5715 72.8676 93.4556 72.2258C93.3396 71.584 93.4107 70.9209 93.6596 70.3212C93.9085 69.7214 94.324 69.2123 94.8531 68.8586C95.3822 68.505 96.0009 68.323 96.6301 68.3358C97.0422 68.3357 97.4502 68.4208 97.8303 68.586C98.2104 68.7512 98.5549 68.9933 98.8439 69.2981C99.1329 69.6029 99.3605 69.9644 99.5134 70.3614C99.6664 70.7584 99.7416 71.183 99.7347 71.6105Z" stroke="#FFE835" stroke-width="1.49" stroke-linecap="round" stroke-linejoin="round"/>
<path d="M99.7347 71.6105C99.7367 72.2635 99.551 72.9022 99.2015 73.4452C98.852 73.9882 98.3544 74.4109 97.7723 74.6592C97.1902 74.9075 96.55 74.9702 95.9334 74.8394C95.3168 74.7085 94.7518 74.39 94.3104 73.9245C93.8691 73.459 93.5715 72.8676 93.4556 72.2258C93.3396 71.584 93.4107 70.9209 93.6596 70.3212C93.9085 69.7214 94.324 69.2123 94.8531 68.8586C95.3822 68.505 96.0009 68.323 96.6301 68.3358C97.0422 68.3357 97.4502 68.4208 97.8303 68.586C98.2104 68.7512 98.5549 68.9933 98.8439 69.2981C99.1329 69.6029 99.3605 69.9644 99.5134 70.3614C99.6664 70.7584 99.7416 71.183 99.7347 71.6105Z" stroke="#FFEB51" stroke-width="1.3" stroke-linecap="round" stroke-linejoin="round"/>
<path d="M99.7347 71.6105C99.7367 72.2635 99.551 72.9022 99.2015 73.4452C98.852 73.9882 98.3544 74.4109 97.7723 74.6592C97.1902 74.9075 96.55 74.9702 95.9334 74.8394C95.3168 74.7085 94.7518 74.39 94.3104 73.9245C93.8691 73.459 93.5715 72.8676 93.4556 72.2258C93.3396 71.584 93.4107 70.9209 93.6596 70.3212C93.9085 69.7214 94.324 69.2123 94.8531 68.8586C95.3822 68.505 96.0009 68.323 96.6301 68.3358C97.0422 68.3357 97.4502 68.4208 97.8303 68.586C98.2104 68.7512 98.5549 68.9933 98.8439 69.2981C99.1329 69.6029 99.3605 69.9644 99.5134 70.3614C99.6664 70.7584 99.7416 71.183 99.7347 71.6105Z" stroke="#FFEE6E" stroke-width="1.12" stroke-linecap="round" stroke-linejoin="round"/>
<path d="M99.7347 71.6105C99.7367 72.2635 99.551 72.9022 99.2015 73.4452C98.852 73.9882 98.3544 74.4109 97.7723 74.6592C97.1902 74.9075 96.55 74.9702 95.9334 74.8394C95.3168 74.7085 94.7518 74.39 94.3104 73.9245C93.8691 73.459 93.5715 72.8676 93.4556 72.2258C93.3396 71.584 93.4107 70.9209 93.6596 70.3212C93.9085 69.7214 94.324 69.2123 94.8531 68.8586C95.3822 68.505 96.0009 68.323 96.6301 68.3358C97.0422 68.3357 97.4502 68.4208 97.8303 68.586C98.2104 68.7512 98.5549 68.9933 98.8439 69.2981C99.1329 69.6029 99.3605 69.9644 99.5134 70.3614C99.6664 70.7584 99.7416 71.183 99.7347 71.6105Z" stroke="#FFF18D" stroke-width="0.93" stroke-linecap="round" stroke-linejoin="round"/>
<path d="M99.7347 71.6105C99.7367 72.2635 99.551 72.9022 99.2015 73.4452C98.852 73.9882 98.3544 74.4109 97.7723 74.6592C97.1902 74.9075 96.55 74.9702 95.9334 74.8394C95.3168 74.7085 94.7518 74.39 94.3104 73.9245C93.8691 73.459 93.5715 72.8676 93.4556 72.2258C93.3396 71.584 93.4107 70.9209 93.6596 70.3212C93.9085 69.7214 94.324 69.2123 94.8531 68.8586C95.3822 68.505 96.0009 68.323 96.6301 68.3358C97.0422 68.3357 97.4502 68.4208 97.8303 68.586C98.2104 68.7512 98.5549 68.9933 98.8439 69.2981C99.1329 69.6029 99.3605 69.9644 99.5134 70.3614C99.6664 70.7584 99.7416 71.183 99.7347 71.6105Z" stroke="#FFF5AC" stroke-width="0.75" stroke-linecap="round" stroke-linejoin="round"/>
<path d="M99.7347 71.6105C99.7367 72.2635 99.551 72.9022 99.2015 73.4452C98.852 73.9882 98.3544 74.4109 97.7723 74.6592C97.1902 74.9075 96.55 74.9702 95.9334 74.8394C95.3168 74.7085 94.7518 74.39 94.3104 73.9245C93.8691 73.459 93.5715 72.8676 93.4556 72.2258C93.3396 71.584 93.4107 70.9209 93.6596 70.3212C93.9085 69.7214 94.324 69.2123 94.8531 68.8586C95.3822 68.505 96.0009 68.323 96.6301 68.3358C97.0422 68.3357 97.4502 68.4208 97.8303 68.586C98.2104 68.7512 98.5549 68.9933 98.8439 69.2981C99.1329 69.6029 99.3605 69.9644 99.5134 70.3614C99.6664 70.7584 99.7416 71.183 99.7347 71.6105Z" stroke="#FDF7C7" stroke-width="0.37" stroke-linecap="round" stroke-linejoin="round"/>
<path d="M99.7346 88.188C99.7469 88.8431 99.5701 89.487 99.2269 90.0371C98.8837 90.5871 98.3898 91.0182 97.8087 91.2748C97.2276 91.5314 96.5859 91.6019 95.9658 91.4771C95.3458 91.3524 94.7759 91.0382 94.3294 90.5749C93.8828 90.1116 93.5799 89.5203 93.4597 88.8771C93.3395 88.2338 93.4075 87.568 93.6548 86.9651C93.9022 86.3622 94.3176 85.8498 94.8478 85.4937C95.3779 85.1377 95.9986 84.9542 96.63 84.967C97.4485 84.9835 98.2289 85.3281 98.8077 85.9286C99.3866 86.5291 99.7187 87.3389 99.7346 88.188V88.188Z" stroke="#E82C88" stroke-width="1.86" stroke-linecap="round" stroke-linejoin="round"/>
<path d="M99.7346 88.188C99.7469 88.8431 99.5701 89.487 99.2269 90.0371C98.8837 90.5871 98.3898 91.0182 97.8087 91.2748C97.2276 91.5314 96.5859 91.6019 95.9658 91.4771C95.3458 91.3524 94.7759 91.0382 94.3294 90.5749C93.8828 90.1116 93.5799 89.5203 93.4597 88.8771C93.3395 88.2338 93.4075 87.568 93.6548 86.9651C93.9022 86.3622 94.3176 85.8498 94.8478 85.4937C95.3779 85.1377 95.9986 84.9542 96.63 84.967C97.4485 84.9835 98.2289 85.3281 98.8077 85.9286C99.3866 86.5291 99.7187 87.3389 99.7346 88.188V88.188Z" stroke="#E44592" stroke-width="1.68" stroke-linecap="round" stroke-linejoin="round"/>
<path d="M99.7346 88.188C99.7469 88.8431 99.5701 89.487 99.2269 90.0371C98.8837 90.5871 98.3898 91.0182 97.8087 91.2748C97.2276 91.5314 96.5859 91.6019 95.9658 91.4771C95.3458 91.3524 94.7759 91.0382 94.3294 90.5749C93.8828 90.1116 93.5799 89.5203 93.4597 88.8771C93.3395 88.2338 93.4075 87.568 93.6548 86.9651C93.9022 86.3622 94.3176 85.8498 94.8478 85.4937C95.3779 85.1377 95.9986 84.9542 96.63 84.967C97.4485 84.9835 98.2289 85.3281 98.8077 85.9286C99.3866 86.5291 99.7187 87.3389 99.7346 88.188V88.188Z" stroke="#DE6DA7" stroke-width="1.49" stroke-linecap="round" stroke-linejoin="round"/>
<path d="M99.7346 88.188C99.7469 88.8431 99.5701 89.487 99.2269 90.0371C98.8837 90.5871 98.3898 91.0182 97.8087 91.2748C97.2276 91.5314 96.5859 91.6019 95.9658 91.4771C95.3458 91.3524 94.7759 91.0382 94.3294 90.5749C93.8828 90.1116 93.5799 89.5203 93.4597 88.8771C93.3395 88.2338 93.4075 87.568 93.6548 86.9651C93.9022 86.3622 94.3176 85.8498 94.8478 85.4937C95.3779 85.1377 95.9986 84.9542 96.63 84.967C97.4485 84.9835 98.2289 85.3281 98.8077 85.9286C99.3866 86.5291 99.7187 87.3389 99.7346 88.188V88.188Z" stroke="#E77BAF" stroke-width="1.3" stroke-linecap="round" stroke-linejoin="round"/>
<path d="M99.7346 88.188C99.7469 88.8431 99.5701 89.487 99.2269 90.0371C98.8837 90.5871 98.3898 91.0182 97.8087 91.2748C97.2276 91.5314 96.5859 91.6019 95.9658 91.4771C95.3458 91.3524 94.7759 91.0382 94.3294 90.5749C93.8828 90.1116 93.5799 89.5203 93.4597 88.8771C93.3395 88.2338 93.4075 87.568 93.6548 86.9651C93.9022 86.3622 94.3176 85.8498 94.8478 85.4937C95.3779 85.1377 95.9986 84.9542 96.63 84.967C97.4485 84.9835 98.2289 85.3281 98.8077 85.9286C99.3866 86.5291 99.7187 87.3389 99.7346 88.188V88.188Z" stroke="#EE96C0" stroke-width="1.12" stroke-linecap="round" stroke-linejoin="round"/>
<path d="M99.7346 88.188C99.7469 88.8431 99.5701 89.487 99.2269 90.0371C98.8837 90.5871 98.3898 91.0182 97.8087 91.2748C97.2276 91.5314 96.5859 91.6019 95.9658 91.4771C95.3458 91.3524 94.7759 91.0382 94.3294 90.5749C93.8828 90.1116 93.5799 89.5203 93.4597 88.8771C93.3395 88.2338 93.4075 87.568 93.6548 86.9651C93.9022 86.3622 94.3176 85.8498 94.8478 85.4937C95.3779 85.1377 95.9986 84.9542 96.63 84.967C97.4485 84.9835 98.2289 85.3281 98.8077 85.9286C99.3866 86.5291 99.7187 87.3389 99.7346 88.188V88.188Z" stroke="#F1A5C9" stroke-width="0.93" stroke-linecap="round" stroke-linejoin="round"/>
<path d="M99.7346 88.188C99.7469 88.8431 99.5701 89.487 99.2269 90.0371C98.8837 90.5871 98.3898 91.0182 97.8087 91.2748C97.2276 91.5314 96.5859 91.6019 95.9658 91.4771C95.3458 91.3524 94.7759 91.0382 94.3294 90.5749C93.8828 90.1116 93.5799 89.5203 93.4597 88.8771C93.3395 88.2338 93.4075 87.568 93.6548 86.9651C93.9022 86.3622 94.3176 85.8498 94.8478 85.4937C95.3779 85.1377 95.9986 84.9542 96.63 84.967C97.4485 84.9835 98.2289 85.3281 98.8077 85.9286C99.3866 86.5291 99.7187 87.3389 99.7346 88.188V88.188Z" stroke="#F7C3DC" stroke-width="0.75" stroke-linecap="round" stroke-linejoin="round"/>
<path d="M99.7346 88.188C99.7469 88.8431 99.5701 89.487 99.2269 90.0371C98.8837 90.5871 98.3898 91.0182 97.8087 91.2748C97.2276 91.5314 96.5859 91.6019 95.9658 91.4771C95.3458 91.3524 94.7759 91.0382 94.3294 90.5749C93.8828 90.1116 93.5799 89.5203 93.4597 88.8771C93.3395 88.2338 93.4075 87.568 93.6548 86.9651C93.9022 86.3622 94.3176 85.8498 94.8478 85.4937C95.3779 85.1377 95.9986 84.9542 96.63 84.967C97.4485 84.9835 98.2289 85.3281 98.8077 85.9286C99.3866 86.5291 99.7187 87.3389 99.7346 88.188V88.188Z" stroke="#F2CCE3" stroke-width="0.37" stroke-linecap="round" stroke-linejoin="round"/>
<path d="M99.7346 88.188C99.7469 88.8431 99.5701 89.487 99.2269 90.0371C98.8837 90.5871 98.3898 91.0182 97.8087 91.2748C97.2276 91.5314 96.5859 91.6019 95.9658 91.4771C95.3458 91.3524 94.7759 91.0382 94.3294 90.5749C93.8828 90.1116 93.5799 89.5203 93.4597 88.8771C93.3395 88.2338 93.4075 87.568 93.6548 86.9651C93.9022 86.3622 94.3176 85.8498 94.8478 85.4937C95.3779 85.1377 95.9986 84.9542 96.63 84.967C97.4485 84.9835 98.2289 85.3281 98.8077 85.9286C99.3866 86.5291 99.7187 87.3389 99.7346 88.188V88.188Z" stroke="#F9DEED" stroke-width="0.19" stroke-linecap="round" stroke-linejoin="round"/>
<path d="M104.547 83.1847C103.918 83.1975 103.3 83.0157 102.771 82.6626C102.242 82.3094 101.826 81.8009 101.577 81.2018C101.328 80.6027 101.256 79.9402 101.371 79.2987C101.486 78.6572 101.783 78.0658 102.223 77.5998C102.664 77.1339 103.228 76.8145 103.844 76.6825C104.459 76.5504 105.099 76.6116 105.682 76.8582C106.264 77.1049 106.762 77.5258 107.113 78.0674C107.464 78.609 107.651 79.2467 107.651 79.8992C107.654 80.7604 107.33 81.588 106.749 82.2029C106.168 82.8179 105.377 83.1706 104.547 83.1847Z" stroke="#E82C88" stroke-width="1.86" stroke-linecap="round" stroke-linejoin="round"/>
<path d="M104.547 83.1847C103.918 83.1975 103.3 83.0157 102.771 82.6626C102.242 82.3094 101.826 81.8009 101.577 81.2018C101.328 80.6027 101.256 79.9402 101.371 79.2987C101.486 78.6572 101.783 78.0658 102.223 77.5998C102.664 77.1339 103.228 76.8145 103.844 76.6825C104.459 76.5504 105.099 76.6116 105.682 76.8582C106.264 77.1049 106.762 77.5258 107.113 78.0674C107.464 78.609 107.651 79.2467 107.651 79.8992C107.654 80.7604 107.33 81.588 106.749 82.2029C106.168 82.8179 105.377 83.1706 104.547 83.1847Z" stroke="#E44592" stroke-width="1.68" stroke-linecap="round" stroke-linejoin="round"/>
<path d="M104.547 83.1847C103.918 83.1975 103.3 83.0157 102.771 82.6626C102.242 82.3094 101.826 81.8009 101.577 81.2018C101.328 80.6027 101.256 79.9402 101.371 79.2987C101.486 78.6572 101.783 78.0658 102.223 77.5998C102.664 77.1339 103.228 76.8145 103.844 76.6825C104.459 76.5504 105.099 76.6116 105.682 76.8582C106.264 77.1049 106.762 77.5258 107.113 78.0674C107.464 78.609 107.651 79.2467 107.651 79.8992C107.654 80.7604 107.33 81.588 106.749 82.2029C106.168 82.8179 105.377 83.1706 104.547 83.1847Z" stroke="#DE6DA7" stroke-width="1.49" stroke-linecap="round" stroke-linejoin="round"/>
<path d="M104.547 83.1847C103.918 83.1975 103.3 83.0157 102.771 82.6626C102.242 82.3094 101.826 81.8009 101.577 81.2018C101.328 80.6027 101.256 79.9402 101.371 79.2987C101.486 78.6572 101.783 78.0658 102.223 77.5998C102.664 77.1339 103.228 76.8145 103.844 76.6825C104.459 76.5504 105.099 76.6116 105.682 76.8582C106.264 77.1049 106.762 77.5258 107.113 78.0674C107.464 78.609 107.651 79.2467 107.651 79.8992C107.654 80.7604 107.33 81.588 106.749 82.2029C106.168 82.8179 105.377 83.1706 104.547 83.1847Z" stroke="#E77BAF" stroke-width="1.3" stroke-linecap="round" stroke-linejoin="round"/>
<path d="M104.547 83.1847C103.918 83.1975 103.3 83.0157 102.771 82.6626C102.242 82.3094 101.826 81.8009 101.577 81.2018C101.328 80.6027 101.256 79.9402 101.371 79.2987C101.486 78.6572 101.783 78.0658 102.223 77.5998C102.664 77.1339 103.228 76.8145 103.844 76.6825C104.459 76.5504 105.099 76.6116 105.682 76.8582C106.264 77.1049 106.762 77.5258 107.113 78.0674C107.464 78.609 107.651 79.2467 107.651 79.8992C107.654 80.7604 107.33 81.588 106.749 82.2029C106.168 82.8179 105.377 83.1706 104.547 83.1847Z" stroke="#EE96C0" stroke-width="1.12" stroke-linecap="round" stroke-linejoin="round"/>
<path d="M104.547 83.1847C103.918 83.1975 103.3 83.0157 102.771 82.6626C102.242 82.3094 101.826 81.8009 101.577 81.2018C101.328 80.6027 101.256 79.9402 101.371 79.2987C101.486 78.6572 101.783 78.0658 102.223 77.5998C102.664 77.1339 103.228 76.8145 103.844 76.6825C104.459 76.5504 105.099 76.6116 105.682 76.8582C106.264 77.1049 106.762 77.5258 107.113 78.0674C107.464 78.609 107.651 79.2467 107.651 79.8992C107.654 80.7604 107.33 81.588 106.749 82.2029C106.168 82.8179 105.377 83.1706 104.547 83.1847Z" stroke="#F1A5C9" stroke-width="0.93" stroke-linecap="round" stroke-linejoin="round"/>
<path d="M104.547 83.1847C103.918 83.1975 103.3 83.0157 102.771 82.6626C102.242 82.3094 101.826 81.8009 101.577 81.2018C101.328 80.6027 101.256 79.9402 101.371 79.2987C101.486 78.6572 101.783 78.0658 102.223 77.5998C102.664 77.1339 103.228 76.8145 103.844 76.6825C104.459 76.5504 105.099 76.6116 105.682 76.8582C106.264 77.1049 106.762 77.5258 107.113 78.0674C107.464 78.609 107.651 79.2467 107.651 79.8992C107.654 80.7604 107.33 81.588 106.749 82.2029C106.168 82.8179 105.377 83.1706 104.547 83.1847Z" stroke="#F7C3DC" stroke-width="0.75" stroke-linecap="round" stroke-linejoin="round"/>
<path d="M104.547 83.1847C103.918 83.1975 103.3 83.0157 102.771 82.6626C102.242 82.3094 101.826 81.8009 101.577 81.2018C101.328 80.6027 101.256 79.9402 101.371 79.2987C101.486 78.6572 101.783 78.0658 102.223 77.5998C102.664 77.1339 103.228 76.8145 103.844 76.6825C104.459 76.5504 105.099 76.6116 105.682 76.8582C106.264 77.1049 106.762 77.5258 107.113 78.0674C107.464 78.609 107.651 79.2467 107.651 79.8992C107.654 80.7604 107.33 81.588 106.749 82.2029C106.168 82.8179 105.377 83.1706 104.547 83.1847Z" stroke="#F2CCE3" stroke-width="0.37" stroke-linecap="round" stroke-linejoin="round"/>
<path d="M104.547 83.1847C103.918 83.1975 103.3 83.0157 102.771 82.6626C102.242 82.3094 101.826 81.8009 101.577 81.2018C101.328 80.6027 101.256 79.9402 101.371 79.2987C101.486 78.6572 101.783 78.0658 102.223 77.5998C102.664 77.1339 103.228 76.8145 103.844 76.6825C104.459 76.5504 105.099 76.6116 105.682 76.8582C106.264 77.1049 106.762 77.5258 107.113 78.0674C107.464 78.609 107.651 79.2467 107.651 79.8992C107.654 80.7604 107.33 81.588 106.749 82.2029C106.168 82.8179 105.377 83.1706 104.547 83.1847Z" stroke="#F9DEED" stroke-width="0.19" stroke-linecap="round" stroke-linejoin="round"/>
<path d="M88.5682 83.1847C87.9414 83.1868 87.3281 82.9959 86.806 82.6362C86.2839 82.2765 85.8764 81.7641 85.6351 81.164C85.3939 80.5638 85.3297 79.9029 85.4507 79.2649C85.5717 78.6269 85.8725 78.0405 86.315 77.5799C86.7574 77.1194 87.3216 76.8054 87.9362 76.6778C88.5508 76.5501 89.188 76.6145 89.7672 76.8629C90.3465 77.1112 90.8417 77.5323 91.1901 78.0728C91.5385 78.6134 91.7245 79.249 91.7245 79.8992C91.7245 80.7687 91.3923 81.6028 90.8007 82.2186C90.209 82.8344 89.4062 83.1818 88.5682 83.1847Z" stroke="#FFE003" stroke-width="1.86" stroke-linecap="round" stroke-linejoin="round"/>
<path d="M88.5682 83.1847C87.9414 83.1868 87.3281 82.9959 86.806 82.6362C86.2839 82.2765 85.8764 81.7641 85.6351 81.164C85.3939 80.5638 85.3297 79.9029 85.4507 79.2649C85.5717 78.6269 85.8725 78.0405 86.315 77.5799C86.7574 77.1194 87.3216 76.8054 87.9362 76.6778C88.5508 76.5501 89.188 76.6145 89.7672 76.8629C90.3465 77.1112 90.8417 77.5323 91.1901 78.0728C91.5385 78.6134 91.7245 79.249 91.7245 79.8992C91.7245 80.7687 91.3923 81.6028 90.8007 82.2186C90.209 82.8344 89.4062 83.1818 88.5682 83.1847Z" stroke="#FFE313" stroke-width="1.68" stroke-linecap="round" stroke-linejoin="round"/>
<path d="M88.5682 83.1847C87.9414 83.1868 87.3281 82.9959 86.806 82.6362C86.2839 82.2765 85.8764 81.7641 85.6351 81.164C85.3939 80.5638 85.3297 79.9029 85.4507 79.2649C85.5717 78.6269 85.8725 78.0405 86.315 77.5799C86.7574 77.1194 87.3216 76.8054 87.9362 76.6778C88.5508 76.5501 89.188 76.6145 89.7672 76.8629C90.3465 77.1112 90.8417 77.5323 91.1901 78.0728C91.5385 78.6134 91.7245 79.249 91.7245 79.8992C91.7245 80.7687 91.3923 81.6028 90.8007 82.2186C90.209 82.8344 89.4062 83.1818 88.5682 83.1847Z" stroke="#FFE835" stroke-width="1.49" stroke-linecap="round" stroke-linejoin="round"/>
<path d="M88.5682 83.1847C87.9414 83.1868 87.3281 82.9959 86.806 82.6362C86.2839 82.2765 85.8764 81.7641 85.6351 81.164C85.3939 80.5638 85.3297 79.9029 85.4507 79.2649C85.5717 78.6269 85.8725 78.0405 86.315 77.5799C86.7574 77.1194 87.3216 76.8054 87.9362 76.6778C88.5508 76.5501 89.188 76.6145 89.7672 76.8629C90.3465 77.1112 90.8417 77.5323 91.1901 78.0728C91.5385 78.6134 91.7245 79.249 91.7245 79.8992C91.7245 80.7687 91.3923 81.6028 90.8007 82.2186C90.209 82.8344 89.4062 83.1818 88.5682 83.1847Z" stroke="#FFEB51" stroke-width="1.3" stroke-linecap="round" stroke-linejoin="round"/>
<path d="M88.5682 83.1847C87.9414 83.1868 87.3281 82.9959 86.806 82.6362C86.2839 82.2765 85.8764 81.7641 85.6351 81.164C85.3939 80.5638 85.3297 79.9029 85.4507 79.2649C85.5717 78.6269 85.8725 78.0405 86.315 77.5799C86.7574 77.1194 87.3216 76.8054 87.9362 76.6778C88.5508 76.5501 89.188 76.6145 89.7672 76.8629C90.3465 77.1112 90.8417 77.5323 91.1901 78.0728C91.5385 78.6134 91.7245 79.249 91.7245 79.8992C91.7245 80.7687 91.3923 81.6028 90.8007 82.2186C90.209 82.8344 89.4062 83.1818 88.5682 83.1847Z" stroke="#FFEE6E" stroke-width="1.12" stroke-linecap="round" stroke-linejoin="round"/>
<path d="M88.5682 83.1847C87.9414 83.1868 87.3281 82.9959 86.806 82.6362C86.2839 82.2765 85.8764 81.7641 85.6351 81.164C85.3939 80.5638 85.3297 79.9029 85.4507 79.2649C85.5717 78.6269 85.8725 78.0405 86.315 77.5799C86.7574 77.1194 87.3216 76.8054 87.9362 76.6778C88.5508 76.5501 89.188 76.6145 89.7672 76.8629C90.3465 77.1112 90.8417 77.5323 91.1901 78.0728C91.5385 78.6134 91.7245 79.249 91.7245 79.8992C91.7245 80.7687 91.3923 81.6028 90.8007 82.2186C90.209 82.8344 89.4062 83.1818 88.5682 83.1847Z" stroke="#FFF18D" stroke-width="0.93" stroke-linecap="round" stroke-linejoin="round"/>
<path d="M88.5682 83.1847C87.9414 83.1868 87.3281 82.9959 86.806 82.6362C86.2839 82.2765 85.8764 81.7641 85.6351 81.164C85.3939 80.5638 85.3297 79.9029 85.4507 79.2649C85.5717 78.6269 85.8725 78.0405 86.315 77.5799C86.7574 77.1194 87.3216 76.8054 87.9362 76.6778C88.5508 76.5501 89.188 76.6145 89.7672 76.8629C90.3465 77.1112 90.8417 77.5323 91.1901 78.0728C91.5385 78.6134 91.7245 79.249 91.7245 79.8992C91.7245 80.7687 91.3923 81.6028 90.8007 82.2186C90.209 82.8344 89.4062 83.1818 88.5682 83.1847Z" stroke="#FFF5AC" stroke-width="0.75" stroke-linecap="round" stroke-linejoin="round"/>
<path d="M88.5682 83.1847C87.9414 83.1868 87.3281 82.9959 86.806 82.6362C86.2839 82.2765 85.8764 81.7641 85.6351 81.164C85.3939 80.5638 85.3297 79.9029 85.4507 79.2649C85.5717 78.6269 85.8725 78.0405 86.315 77.5799C86.7574 77.1194 87.3216 76.8054 87.9362 76.6778C88.5508 76.5501 89.188 76.6145 89.7672 76.8629C90.3465 77.1112 90.8417 77.5323 91.1901 78.0728C91.5385 78.6134 91.7245 79.249 91.7245 79.8992C91.7245 80.7687 91.3923 81.6028 90.8007 82.2186C90.209 82.8344 89.4062 83.1818 88.5682 83.1847Z" stroke="#FDF7C7" stroke-width="0.37" stroke-linecap="round" stroke-linejoin="round"/>
<path d="M113.302 79.8992C113.302 83.3351 112.32 86.6938 110.48 89.5506C108.64 92.4074 106.025 94.634 102.965 95.9489C99.9057 97.2637 96.539 97.6077 93.291 96.9374C90.043 96.2671 87.0594 94.6126 84.7177 92.1831C82.376 89.7536 80.7813 86.6582 80.1352 83.2883C79.4891 79.9185 79.8207 76.4256 81.0881 73.2513C82.3554 70.077 84.5015 67.3638 87.2551 65.455C90.0086 63.5461 93.2459 62.5273 96.5576 62.5273C100.998 62.5273 105.257 64.3575 108.398 67.6154C111.538 70.8733 113.302 75.2919 113.302 79.8992V79.8992Z" stroke="#43C0EF" stroke-width="1.86" stroke-linecap="round" stroke-linejoin="round"/>
<path d="M113.302 79.8992C113.302 83.3351 112.32 86.6938 110.48 89.5506C108.64 92.4074 106.025 94.634 102.965 95.9489C99.9057 97.2637 96.539 97.6077 93.291 96.9374C90.043 96.2671 87.0594 94.6126 84.7177 92.1831C82.376 89.7536 80.7813 86.6582 80.1352 83.2883C79.4891 79.9185 79.8207 76.4256 81.0881 73.2513C82.3554 70.077 84.5015 67.3638 87.2551 65.455C90.0086 63.5461 93.2459 62.5273 96.5576 62.5273C100.998 62.5273 105.257 64.3575 108.398 67.6154C111.538 70.8733 113.302 75.2919 113.302 79.8992V79.8992Z" stroke="#4BC1ED" stroke-width="1.68" stroke-linecap="round" stroke-linejoin="round"/>
<path d="M113.302 79.8992C113.302 83.3351 112.32 86.6938 110.48 89.5506C108.64 92.4074 106.025 94.634 102.965 95.9489C99.9057 97.2637 96.539 97.6077 93.291 96.9374C90.043 96.2671 87.0594 94.6126 84.7177 92.1831C82.376 89.7536 80.7813 86.6582 80.1352 83.2883C79.4891 79.9185 79.8207 76.4256 81.0881 73.2513C82.3554 70.077 84.5015 67.3638 87.2551 65.455C90.0086 63.5461 93.2459 62.5273 96.5576 62.5273C100.998 62.5273 105.257 64.3575 108.398 67.6154C111.538 70.8733 113.302 75.2919 113.302 79.8992V79.8992Z" stroke="#5DC5EC" stroke-width="1.49" stroke-linecap="round" stroke-linejoin="round"/>
<path d="M113.302 79.8992C113.302 83.3351 112.32 86.6938 110.48 89.5506C108.64 92.4074 106.025 94.634 102.965 95.9489C99.9057 97.2637 96.539 97.6077 93.291 96.9374C90.043 96.2671 87.0594 94.6126 84.7177 92.1831C82.376 89.7536 80.7813 86.6582 80.1352 83.2883C79.4891 79.9185 79.8207 76.4256 81.0881 73.2513C82.3554 70.077 84.5015 67.3638 87.2551 65.455C90.0086 63.5461 93.2459 62.5273 96.5576 62.5273C100.998 62.5273 105.257 64.3575 108.398 67.6154C111.538 70.8733 113.302 75.2919 113.302 79.8992V79.8992Z" stroke="#6EC9EB" stroke-width="1.3" stroke-linecap="round" stroke-linejoin="round"/>
<path d="M113.302 79.8992C113.302 83.3351 112.32 86.6938 110.48 89.5506C108.64 92.4074 106.025 94.634 102.965 95.9489C99.9057 97.2637 96.539 97.6077 93.291 96.9374C90.043 96.2671 87.0594 94.6126 84.7177 92.1831C82.376 89.7536 80.7813 86.6582 80.1352 83.2883C79.4891 79.9185 79.8207 76.4256 81.0881 73.2513C82.3554 70.077 84.5015 67.3638 87.2551 65.455C90.0086 63.5461 93.2459 62.5273 96.5576 62.5273C100.998 62.5273 105.257 64.3575 108.398 67.6154C111.538 70.8733 113.302 75.2919 113.302 79.8992V79.8992Z" stroke="#7DCDEB" stroke-width="1.12" stroke-linecap="round" stroke-linejoin="round"/>
<path d="M113.302 79.8992C113.302 83.3351 112.32 86.6938 110.48 89.5506C108.64 92.4074 106.025 94.634 102.965 95.9489C99.9057 97.2637 96.539 97.6077 93.291 96.9374C90.043 96.2671 87.0594 94.6126 84.7177 92.1831C82.376 89.7536 80.7813 86.6582 80.1352 83.2883C79.4891 79.9185 79.8207 76.4256 81.0881 73.2513C82.3554 70.077 84.5015 67.3638 87.2551 65.455C90.0086 63.5461 93.2459 62.5273 96.5576 62.5273C100.998 62.5273 105.257 64.3575 108.398 67.6154C111.538 70.8733 113.302 75.2919 113.302 79.8992V79.8992Z" stroke="#88CFE8" stroke-width="0.93" stroke-linecap="round" stroke-linejoin="round"/>
<path d="M113.302 79.8992C113.302 83.3351 112.32 86.6938 110.48 89.5506C108.64 92.4074 106.025 94.634 102.965 95.9489C99.9057 97.2637 96.539 97.6077 93.291 96.9374C90.043 96.2671 87.0594 94.6126 84.7177 92.1831C82.376 89.7536 80.7813 86.6582 80.1352 83.2883C79.4891 79.9185 79.8207 76.4256 81.0881 73.2513C82.3554 70.077 84.5015 67.3638 87.2551 65.455C90.0086 63.5461 93.2459 62.5273 96.5576 62.5273C100.998 62.5273 105.257 64.3575 108.398 67.6154C111.538 70.8733 113.302 75.2919 113.302 79.8992V79.8992Z" stroke="#B1DEEF" stroke-width="0.75" stroke-linecap="round" stroke-linejoin="round"/>
<path d="M113.302 79.8992C113.302 83.3351 112.32 86.6938 110.48 89.5506C108.64 92.4074 106.025 94.634 102.965 95.9489C99.9057 97.2637 96.539 97.6077 93.291 96.9374C90.043 96.2671 87.0594 94.6126 84.7177 92.1831C82.376 89.7536 80.7813 86.6582 80.1352 83.2883C79.4891 79.9185 79.8207 76.4256 81.0881 73.2513C82.3554 70.077 84.5015 67.3638 87.2551 65.455C90.0086 63.5461 93.2459 62.5273 96.5576 62.5273C100.998 62.5273 105.257 64.3575 108.398 67.6154C111.538 70.8733 113.302 75.2919 113.302 79.8992V79.8992Z" stroke="#C2E4ED" stroke-width="0.37" stroke-linecap="round" stroke-linejoin="round"/>
<path d="M113.302 79.8992C113.302 83.3351 112.32 86.6938 110.48 89.5506C108.64 92.4074 106.025 94.634 102.965 95.9489C99.9057 97.2637 96.539 97.6077 93.291 96.9374C90.043 96.2671 87.0594 94.6126 84.7177 92.1831C82.376 89.7536 80.7813 86.6582 80.1352 83.2883C79.4891 79.9185 79.8207 76.4256 81.0881 73.2513C82.3554 70.077 84.5015 67.3638 87.2551 65.455C90.0086 63.5461 93.2459 62.5273 96.5576 62.5273C100.998 62.5273 105.257 64.3575 108.398 67.6154C111.538 70.8733 113.302 75.2919 113.302 79.8992V79.8992Z" stroke="#D8EDF4" stroke-width="0.19" stroke-linecap="round" stroke-linejoin="round"/>
<path d="M74.3698 77.8807H56.3424C55.3936 77.8807 54.6245 78.6787 54.6245 79.663V86.76C54.6245 87.7443 55.3936 88.5423 56.3424 88.5423H74.3698C75.3185 88.5423 76.0876 87.7443 76.0876 86.76V79.663C76.0876 78.6787 75.3185 77.8807 74.3698 77.8807Z" stroke="#E82C88" stroke-width="1.86" stroke-linecap="round" stroke-linejoin="round"/>
<path d="M74.3698 77.8807H56.3424C55.3936 77.8807 54.6245 78.6787 54.6245 79.663V86.76C54.6245 87.7443 55.3936 88.5423 56.3424 88.5423H74.3698C75.3185 88.5423 76.0876 87.7443 76.0876 86.76V79.663C76.0876 78.6787 75.3185 77.8807 74.3698 77.8807Z" stroke="#E44592" stroke-width="1.68" stroke-linecap="round" stroke-linejoin="round"/>
<path d="M74.3698 77.8807H56.3424C55.3936 77.8807 54.6245 78.6787 54.6245 79.663V86.76C54.6245 87.7443 55.3936 88.5423 56.3424 88.5423H74.3698C75.3185 88.5423 76.0876 87.7443 76.0876 86.76V79.663C76.0876 78.6787 75.3185 77.8807 74.3698 77.8807Z" stroke="#DE6DA7" stroke-width="1.49" stroke-linecap="round" stroke-linejoin="round"/>
<path d="M74.3698 77.8807H56.3424C55.3936 77.8807 54.6245 78.6787 54.6245 79.663V86.76C54.6245 87.7443 55.3936 88.5423 56.3424 88.5423H74.3698C75.3185 88.5423 76.0876 87.7443 76.0876 86.76V79.663C76.0876 78.6787 75.3185 77.8807 74.3698 77.8807Z" stroke="#E77BAF" stroke-width="1.3" stroke-linecap="round" stroke-linejoin="round"/>
<path d="M74.3698 77.8807H56.3424C55.3936 77.8807 54.6245 78.6787 54.6245 79.663V86.76C54.6245 87.7443 55.3936 88.5423 56.3424 88.5423H74.3698C75.3185 88.5423 76.0876 87.7443 76.0876 86.76V79.663C76.0876 78.6787 75.3185 77.8807 74.3698 77.8807Z" stroke="#EE96C0" stroke-width="1.12" stroke-linecap="round" stroke-linejoin="round"/>
<path d="M74.3698 77.8807H56.3424C55.3936 77.8807 54.6245 78.6787 54.6245 79.663V86.76C54.6245 87.7443 55.3936 88.5423 56.3424 88.5423H74.3698C75.3185 88.5423 76.0876 87.7443 76.0876 86.76V79.663C76.0876 78.6787 75.3185 77.8807 74.3698 77.8807Z" stroke="#F1A5C9" stroke-width="0.93" stroke-linecap="round" stroke-linejoin="round"/>
<path d="M74.3698 77.8807H56.3424C55.3936 77.8807 54.6245 78.6787 54.6245 79.663V86.76C54.6245 87.7443 55.3936 88.5423 56.3424 88.5423H74.3698C75.3185 88.5423 76.0876 87.7443 76.0876 86.76V79.663C76.0876 78.6787 75.3185 77.8807 74.3698 77.8807Z" stroke="#F7C3DC" stroke-width="0.75" stroke-linecap="round" stroke-linejoin="round"/>
<path d="M74.3698 77.8807H56.3424C55.3936 77.8807 54.6245 78.6787 54.6245 79.663V86.76C54.6245 87.7443 55.3936 88.5423 56.3424 88.5423H74.3698C75.3185 88.5423 76.0876 87.7443 76.0876 86.76V79.663C76.0876 78.6787 75.3185 77.8807 74.3698 77.8807Z" stroke="#F2CCE3" stroke-width="0.37" stroke-linecap="round" stroke-linejoin="round"/>
<path d="M74.3698 77.8807H56.3424C55.3936 77.8807 54.6245 78.6787 54.6245 79.663V86.76C54.6245 87.7443 55.3936 88.5423 56.3424 88.5423H74.3698C75.3185 88.5423 76.0876 87.7443 76.0876 86.76V79.663C76.0876 78.6787 75.3185 77.8807 74.3698 77.8807Z" stroke="#F9DEED" stroke-width="0.19" stroke-linecap="round" stroke-linejoin="round"/>
<path d="M58.9712 83.1847H63.5453" stroke="#43C0EF" stroke-width="1.86" stroke-linecap="round" stroke-linejoin="round"/>
<path d="M58.9712 83.1847H63.5453" stroke="#4BC1ED" stroke-width="1.68" stroke-linecap="round" stroke-linejoin="round"/>
<path d="M58.9712 83.1847H63.5453" stroke="#5DC5EC" stroke-width="1.49" stroke-linecap="round" stroke-linejoin="round"/>
<path d="M58.9712 83.1847H63.5453" stroke="#6EC9EB" stroke-width="1.3" stroke-linecap="round" stroke-linejoin="round"/>
<path d="M58.9712 83.1847H63.5453" stroke="#7DCDEB" stroke-width="1.12" stroke-linecap="round" stroke-linejoin="round"/>
<path d="M58.9712 83.1847H63.5453" stroke="#88CFE8" stroke-width="0.93" stroke-linecap="round" stroke-linejoin="round"/>
<path d="M58.9712 83.1847H63.5453" stroke="#B1DEEF" stroke-width="0.75" stroke-linecap="round" stroke-linejoin="round"/>
<path d="M58.9712 83.1847H63.5453" stroke="#C2E4ED" stroke-width="0.37" stroke-linecap="round" stroke-linejoin="round"/>
<path d="M58.9712 83.1847H63.5453" stroke="#D8EDF4" stroke-width="0.19" stroke-linecap="round" stroke-linejoin="round"/>
<path d="M67.1675 83.1847H71.7519" stroke="#43C0EF" stroke-width="1.86" stroke-linecap="round" stroke-linejoin="round"/>
<path d="M67.1675 83.1847H71.7519" stroke="#4BC1ED" stroke-width="1.68" stroke-linecap="round" stroke-linejoin="round"/>
<path d="M67.1675 83.1847H71.7519" stroke="#5DC5EC" stroke-width="1.49" stroke-linecap="round" stroke-linejoin="round"/>
<path d="M67.1675 83.1847H71.7519" stroke="#6EC9EB" stroke-width="1.3" stroke-linecap="round" stroke-linejoin="round"/>
<path d="M67.1675 83.1847H71.7519" stroke="#7DCDEB" stroke-width="1.12" stroke-linecap="round" stroke-linejoin="round"/>
<path d="M67.1675 83.1847H71.7519" stroke="#88CFE8" stroke-width="0.93" stroke-linecap="round" stroke-linejoin="round"/>
<path d="M67.1675 83.1847H71.7519" stroke="#B1DEEF" stroke-width="0.75" stroke-linecap="round" stroke-linejoin="round"/>
<path d="M67.1675 83.1847H71.7519" stroke="#C2E4ED" stroke-width="0.37" stroke-linecap="round" stroke-linejoin="round"/>
<path d="M67.1675 83.1847H71.7519" stroke="#D8EDF4" stroke-width="0.19" stroke-linecap="round" stroke-linejoin="round"/>
<path d="M60.0889 57.7709L61.2893 53.5621C61.3154 53.3235 61.431 53.1052 61.6112 52.9545C61.7913 52.8037 62.0215 52.7327 62.2517 52.7568H68.4609C68.6912 52.7327 68.9214 52.8037 69.1015 52.9545C69.2817 53.1052 69.3973 53.3235 69.4234 53.5621L70.6238 57.7709" stroke="#FFE003" stroke-width="1.86" stroke-linecap="round" stroke-linejoin="round"/>
<path d="M60.0889 57.7709L61.2893 53.5621C61.3154 53.3235 61.431 53.1052 61.6112 52.9545C61.7913 52.8037 62.0215 52.7327 62.2517 52.7568H68.4609C68.6912 52.7327 68.9214 52.8037 69.1015 52.9545C69.2817 53.1052 69.3973 53.3235 69.4234 53.5621L70.6238 57.7709" stroke="#FFE313" stroke-width="1.68" stroke-linecap="round" stroke-linejoin="round"/>
<path d="M60.0889 57.7709L61.2893 53.5621C61.3154 53.3235 61.431 53.1052 61.6112 52.9545C61.7913 52.8037 62.0215 52.7327 62.2517 52.7568H68.4609C68.6912 52.7327 68.9214 52.8037 69.1015 52.9545C69.2817 53.1052 69.3973 53.3235 69.4234 53.5621L70.6238 57.7709" stroke="#FFE835" stroke-width="1.49" stroke-linecap="round" stroke-linejoin="round"/>
<path d="M60.0889 57.7709L61.2893 53.5621C61.3154 53.3235 61.431 53.1052 61.6112 52.9545C61.7913 52.8037 62.0215 52.7327 62.2517 52.7568H68.4609C68.6912 52.7327 68.9214 52.8037 69.1015 52.9545C69.2817 53.1052 69.3973 53.3235 69.4234 53.5621L70.6238 57.7709" stroke="#FFEB51" stroke-width="1.3" stroke-linecap="round" stroke-linejoin="round"/>
<path d="M60.0889 57.7709L61.2893 53.5621C61.3154 53.3235 61.431 53.1052 61.6112 52.9545C61.7913 52.8037 62.0215 52.7327 62.2517 52.7568H68.4609C68.6912 52.7327 68.9214 52.8037 69.1015 52.9545C69.2817 53.1052 69.3973 53.3235 69.4234 53.5621L70.6238 57.7709" stroke="#FFEE6E" stroke-width="1.12" stroke-linecap="round" stroke-linejoin="round"/>
<path d="M60.0889 57.7709L61.2893 53.5621C61.3154 53.3235 61.431 53.1052 61.6112 52.9545C61.7913 52.8037 62.0215 52.7327 62.2517 52.7568H68.4609C68.6912 52.7327 68.9214 52.8037 69.1015 52.9545C69.2817 53.1052 69.3973 53.3235 69.4234 53.5621L70.6238 57.7709" stroke="#FFF18D" stroke-width="0.93" stroke-linecap="round" stroke-linejoin="round"/>
<path d="M60.0889 57.7709L61.2893 53.5621C61.3154 53.3235 61.431 53.1052 61.6112 52.9545C61.7913 52.8037 62.0215 52.7327 62.2517 52.7568H68.4609C68.6912 52.7327 68.9214 52.8037 69.1015 52.9545C69.2817 53.1052 69.3973 53.3235 69.4234 53.5621L70.6238 57.7709" stroke="#FFF5AC" stroke-width="0.75" stroke-linecap="round" stroke-linejoin="round"/>
<path d="M60.0889 57.7709L61.2893 53.5621C61.3154 53.3235 61.431 53.1052 61.6112 52.9545C61.7913 52.8037 62.0215 52.7327 62.2517 52.7568H68.4609C68.6912 52.7327 68.9214 52.8037 69.1015 52.9545C69.2817 53.1052 69.3973 53.3235 69.4234 53.5621L70.6238 57.7709" stroke="#FDF7C7" stroke-width="0.37" stroke-linecap="round" stroke-linejoin="round"/>
<path d="M66.1221 50.4807C68.0469 46.6047 72.6314 46.755 76.1913 46.6155C78.4483 46.5763 80.6469 45.8645 82.5247 44.5648C84.5116 43.0401 85.857 39.5292 83.7562 37.5" stroke="#43C0EF" stroke-width="1.86" stroke-linecap="round" stroke-linejoin="round"/>
<path d="M66.1221 50.4807C68.0469 46.6047 72.6314 46.755 76.1913 46.6155C78.4483 46.5763 80.6469 45.8645 82.5247 44.5648C84.5116 43.0401 85.857 39.5292 83.7562 37.5" stroke="#4BC1ED" stroke-width="1.68" stroke-linecap="round" stroke-linejoin="round"/>
<path d="M66.1221 50.4807C68.0469 46.6047 72.6314 46.755 76.1913 46.6155C78.4483 46.5763 80.6469 45.8645 82.5247 44.5648C84.5116 43.0401 85.857 39.5292 83.7562 37.5" stroke="#5DC5EC" stroke-width="1.49" stroke-linecap="round" stroke-linejoin="round"/>
<path d="M66.1221 50.4807C68.0469 46.6047 72.6314 46.755 76.1913 46.6155C78.4483 46.5763 80.6469 45.8645 82.5247 44.5648C84.5116 43.0401 85.857 39.5292 83.7562 37.5" stroke="#6EC9EB" stroke-width="1.3" stroke-linecap="round" stroke-linejoin="round"/>
<path d="M66.1221 50.4807C68.0469 46.6047 72.6314 46.755 76.1913 46.6155C78.4483 46.5763 80.6469 45.8645 82.5247 44.5648C84.5116 43.0401 85.857 39.5292 83.7562 37.5" stroke="#7DCDEB" stroke-width="1.12" stroke-linecap="round" stroke-linejoin="round"/>
<path d="M66.1221 50.4807C68.0469 46.6047 72.6314 46.755 76.1913 46.6155C78.4483 46.5763 80.6469 45.8645 82.5247 44.5648C84.5116 43.0401 85.857 39.5292 83.7562 37.5" stroke="#88CFE8" stroke-width="0.93" stroke-linecap="round" stroke-linejoin="round"/>
<path d="M66.1221 50.4807C68.0469 46.6047 72.6314 46.755 76.1913 46.6155C78.4483 46.5763 80.6469 45.8645 82.5247 44.5648C84.5116 43.0401 85.857 39.5292 83.7562 37.5" stroke="#B1DEEF" stroke-width="0.75" stroke-linecap="round" stroke-linejoin="round"/>
<path d="M66.1221 50.4807C68.0469 46.6047 72.6314 46.755 76.1913 46.6155C78.4483 46.5763 80.6469 45.8645 82.5247 44.5648C84.5116 43.0401 85.857 39.5292 83.7562 37.5" stroke="#C2E4ED" stroke-width="0.37" stroke-linecap="round" stroke-linejoin="round"/>
<path d="M66.1221 50.4807C68.0469 46.6047 72.6314 46.755 76.1913 46.6155C78.4483 46.5763 80.6469 45.8645 82.5247 44.5648C84.5116 43.0401 85.857 39.5292 83.7562 37.5" stroke="#D8EDF4" stroke-width="0.19" stroke-linecap="round" stroke-linejoin="round"/>
<path d="M68.7505 60.4229H84.3045" stroke="#FFE003" stroke-width="1.86" stroke-linecap="round" stroke-linejoin="round"/>
<path d="M68.7505 60.4229H84.3045" stroke="#FFE313" stroke-width="1.68" stroke-linecap="round" stroke-linejoin="round"/>
<path d="M68.7505 60.4229H84.3045" stroke="#FFE835" stroke-width="1.49" stroke-linecap="round" stroke-linejoin="round"/>
<path d="M68.7505 60.4229H84.3045" stroke="#FFEB51" stroke-width="1.3" stroke-linecap="round" stroke-linejoin="round"/>
<path d="M68.7505 60.4229H84.3045" stroke="#FFEE6E" stroke-width="1.12" stroke-linecap="round" stroke-linejoin="round"/>
<path d="M68.7505 60.4229H84.3045" stroke="#FFF18D" stroke-width="0.93" stroke-linecap="round" stroke-linejoin="round"/>
<path d="M68.7505 60.4229H84.3045" stroke="#FFF5AC" stroke-width="0.75" stroke-linecap="round" stroke-linejoin="round"/>
<path d="M68.7505 60.4229H84.3045" stroke="#FDF7C7" stroke-width="0.37" stroke-linecap="round" stroke-linejoin="round"/>
</svg>
